<svg viewBox="0 0 576 654" fill="none" xmlns="http://www.w3.org/2000/svg">
<g clip-path="url(#clip0)">
<g filter="url(#filter0_d)">
<path d="M491.778 28.4647L171.656 6.07986C168.397 5.85197 165.57 8.30911 165.342 11.568L129.753 520.512C129.525 523.771 131.982 526.597 135.241 526.825L455.363 549.21C458.622 549.438 461.449 546.981 461.677 543.722L497.266 34.7781C497.494 31.5192 495.037 28.6926 491.778 28.4647Z" fill="white"/>
<path d="M462.445 138.766L445.687 145.572L460.804 135.473C458.733 131.544 456.367 127.794 453.72 124.259L382.19 137.428L447.413 116.798C444.696 113.946 441.786 111.3 438.703 108.88L330.386 119.249C317.989 133.173 310.514 151.023 309.187 169.868L470.353 181.138C471.37 166.521 468.642 151.905 462.445 138.766Z" fill="#F2F2F2"/>
<path d="M388.752 175.431L340.566 86.8235C340.566 86.8235 420.413 122.746 407.289 176.728L388.752 175.431Z" fill="#272343"/>
<path d="M391.255 175.607L451.576 94.5856C451.576 94.5856 367.095 119.018 372.622 174.304L391.255 175.607Z" fill="#6C63FF"/>
<path d="M242.219 109.965L169.565 104.885L168.971 113.367L241.626 118.448L242.219 109.965Z" fill="#6C63FF"/>
<path d="M290.607 128.173L168.533 119.636L168.198 124.431L290.272 132.967L290.607 128.173Z" fill="#F2F2F2"/>
<path d="M283.564 138.798L167.759 130.701L167.398 135.864L283.203 143.962L283.564 138.798Z" fill="#F2F2F2"/>
<path d="M251.416 148.039L166.96 142.134L166.625 146.928L251.081 152.833L251.416 148.039Z" fill="#F2F2F2"/>
<path d="M165.342 11.568C165.57 8.3091 168.397 5.85196 171.656 6.07984L491.778 28.4647C495.038 28.6926 497.493 31.5192 497.268 34.7781L494.033 81.0302L162.108 57.82L165.342 11.568Z" fill="#6C63FF" fill-opacity="0.11"/>
<path d="M189.088 39.6081C192.653 39.8573 195.744 37.1698 195.994 33.6054C196.243 30.0409 193.555 26.9493 189.991 26.7001C186.426 26.4508 183.335 29.1383 183.086 32.7028C182.836 36.2672 185.524 39.3588 189.088 39.6081Z" fill="#BAE8E8"/>
<path d="M210.663 41.1167C214.33 41.3731 217.504 38.6914 217.753 35.1269C218.002 31.5625 215.232 28.4651 211.566 28.2087C207.9 27.9523 204.725 30.6341 204.476 34.1985C204.227 37.7629 206.997 40.8603 210.663 41.1167Z" fill="#FF6363"/>
<path d="M232.238 42.6253C235.803 42.8745 238.894 40.187 239.144 36.6226C239.393 33.0582 236.705 29.9665 233.141 29.7173C229.576 29.468 226.485 32.1555 226.235 35.72C225.986 39.2844 228.674 42.376 232.238 42.6253Z" fill="#FFEF63"/>
<path opacity="0.3" d="M474.719 192.932L164.923 171.269L164.536 176.801L474.331 198.463L474.719 192.932Z" fill="#6C63FF"/>
<path opacity="0.3" d="M213.496 314.373L170.225 311.347L167.527 349.943L210.797 352.969L213.496 314.373Z" fill="#6C63FF"/>
<path d="M336.301 322.97L292.764 319.925L290.055 358.66L333.592 361.704L336.301 322.97Z" fill="#272343"/>
<path d="M306.163 359.622L305.59 359.571C305.646 358.938 307.051 344.009 313.241 340.288L313.539 340.78C307.598 344.351 306.177 359.47 306.163 359.622Z" fill="#6C63FF"/>
<path d="M316.292 340.311C317.878 340.422 319.253 339.23 319.364 337.647C319.475 336.065 318.279 334.693 316.692 334.582C315.106 334.471 313.731 335.664 313.62 337.246C313.509 338.828 314.706 340.201 316.292 340.311Z" fill="#6C63FF"/>
<path d="M315.204 347.521C313.677 347.885 312.081 347.842 310.576 347.397C311.633 346.233 313.005 345.397 314.527 344.993C316.05 344.588 317.656 344.631 319.155 345.117C318.072 346.25 316.709 347.079 315.204 347.521Z" fill="#6C63FF"/>
<path d="M450.629 330.964L407.093 327.92L404.383 366.654L447.923 369.699L450.629 330.964Z" fill="#272343"/>
<path d="M420.491 367.617L419.918 367.566C419.973 366.932 421.378 352.003 427.571 348.283L427.867 348.775C421.925 352.345 420.506 367.465 420.491 367.617Z" fill="#6C63FF"/>
<path d="M430.621 348.306C432.207 348.417 433.582 347.224 433.693 345.642C433.804 344.06 432.606 342.688 431.02 342.577C429.434 342.466 428.059 343.658 427.948 345.24C427.837 346.823 429.035 348.195 430.621 348.306Z" fill="#6C63FF"/>
<path d="M429.534 355.516C428.007 355.88 426.41 355.837 424.906 355.392C425.963 354.227 427.334 353.392 428.858 352.987C430.377 352.583 431.985 352.626 433.483 353.111C432.399 354.244 431.039 355.074 429.534 355.516Z" fill="#6C63FF"/>
<path d="M208.887 300.588L168.056 285.2L154.31 321.523L195.142 336.911L208.887 300.588Z" fill="#272343"/>
<path d="M169.464 327.059L168.929 326.846C169.166 326.255 174.809 312.359 181.811 310.569L181.954 311.125C175.235 312.843 169.521 326.917 169.464 327.059Z" fill="#6C63FF"/>
<path d="M185.542 311.643C187.128 311.754 188.504 310.561 188.615 308.979C188.725 307.397 187.529 306.025 185.943 305.914C184.357 305.803 182.981 306.996 182.871 308.577C182.76 310.16 183.956 311.532 185.542 311.643Z" fill="#6C63FF"/>
<path d="M181.608 318.059C180.041 317.97 178.525 317.472 177.211 316.615C178.559 315.802 180.113 315.395 181.688 315.444C183.263 315.492 184.79 315.993 186.085 316.888C184.721 317.662 183.178 318.066 181.608 318.059Z" fill="#6C63FF"/>
<path d="M473.533 209.896L163.736 188.233L158.14 268.263L467.935 289.926L473.533 209.896Z" fill="#272343"/>
<path d="M249.647 215.736L173.305 210.398L172.711 218.88L249.054 224.218L249.647 215.736Z" fill="#6C63FF"/>
<path d="M300.617 234.124L172.273 225.149L171.912 230.313L300.256 239.287L300.617 234.124Z" fill="#F2F2F2"/>
<path d="M292.836 244.698L171.499 236.213L171.138 241.377L292.475 249.861L292.836 244.698Z" fill="#F2F2F2"/>
<path d="M259.213 253.836L170.7 247.646L170.339 252.81L258.852 258.999L259.213 253.836Z" fill="#F2F2F2"/>
<path d="M296.138 409.477L148.985 399.188L147.824 415.784L294.977 426.072L296.138 409.477Z" fill="#6C63FF"/>
<path d="M394.468 444.89L146.999 427.584L146.302 437.54L393.769 454.846L394.468 444.89Z" fill="#F2F2F2"/>
<path d="M379.299 465.693L145.477 449.345L144.781 459.301L378.604 475.653L379.299 465.693Z" fill="#F2F2F2"/>
<path d="M314.738 482.673L143.982 470.736L143.234 481.428L313.99 493.369L314.738 482.673Z" fill="#F2F2F2"/>
</g>
<path d="M435.649 552.832C440.4 550.998 439.523 537.238 433.693 522.095C427.863 506.952 419.286 496.16 414.535 497.994C409.784 499.824 410.664 513.588 416.495 528.731C422.325 543.874 430.902 554.665 435.649 552.832Z" fill="#BAE8E8"/>
<path d="M479.485 628.413C511.912 628.413 538.198 602.101 538.198 569.642C538.198 537.182 511.912 510.87 479.485 510.87C447.058 510.87 420.772 537.182 420.772 569.642C420.772 602.101 447.058 628.413 479.485 628.413Z" fill="#BAE8E8"/>
<path d="M488.62 647.726L506.455 647.678L506.366 615.688L488.531 615.736L488.62 647.726Z" fill="#BAE8E8"/>
<path d="M452.947 647.83L470.786 647.782L470.697 615.792L452.859 615.84L452.947 647.83Z" fill="#BAE8E8"/>
<path d="M491.611 653.675C499.822 653.649 506.47 651.135 506.458 648.052C506.451 644.972 499.789 642.491 491.582 642.514C483.37 642.536 476.723 645.053 476.73 648.137C476.742 651.216 483.404 653.697 491.611 653.675Z" fill="#BAE8E8"/>
<path d="M455.935 653.028C464.146 653.006 470.793 650.492 470.786 647.408C470.775 644.325 464.113 641.848 455.905 641.87C447.694 641.892 441.047 644.41 441.058 647.493C441.065 650.573 447.727 653.054 455.935 653.028Z" fill="#BAE8E8"/>
<path d="M477.958 574.855C489.038 574.855 498.022 565.86 498.022 554.765C498.022 543.674 489.038 534.679 477.958 534.679C466.874 534.679 457.89 543.674 457.89 554.765C457.89 565.86 466.874 574.855 477.958 574.855Z" fill="white"/>

<path d="M536.286 514.826C540.967 493.558 525.754 472.126 502.303 466.954C478.853 461.782 456.049 474.828 451.369 496.094C446.688 517.359 462.238 525.156 485.689 530.328C509.139 535.5 531.602 536.092 536.286 514.826Z" fill="#6C63FF"/>
<path d="M549.511 550.51C564.14 543.515 574.222 534.114 572.026 529.518C569.833 524.919 556.195 526.864 541.566 533.862C526.936 540.857 516.855 550.255 519.051 554.854C521.243 559.449 534.881 557.504 549.511 550.51Z" fill="#BAE8E8"/>
<path d="M508.385 590.763C508.399 596.515 493.637 607.913 477.219 607.961C460.8 608.006 445.361 591.857 445.343 586.105C445.328 580.352 460.741 587.177 477.159 587.129C493.578 587.084 508.366 585.01 508.385 590.763Z" fill="white"/>
<path d="M75.7011 550.931C106.617 550.931 131.678 525.843 131.678 494.896C131.678 463.952 106.617 438.864 75.7011 438.864C44.7857 438.864 19.7239 463.952 19.7239 494.896C19.7239 525.843 44.7857 550.931 75.7011 550.931Z" fill="#BAE8E8"/>
<path d="M67.1983 538.872H50.1926V569.372H67.1983V538.872Z" fill="#BAE8E8"/>
<path d="M101.21 538.872H84.204V569.372H101.21V538.872Z" fill="#BAE8E8"/>
<path d="M64.3641 575.047C72.1908 575.047 78.5357 572.666 78.5357 569.727C78.5357 566.788 72.1908 564.407 64.3641 564.407C56.5375 564.407 50.1926 566.788 50.1926 569.727C50.1926 572.666 56.5375 575.047 64.3641 575.047Z" fill="#BAE8E8"/>
<path d="M98.3755 574.337C106.202 574.337 112.547 571.956 112.547 569.017C112.547 566.082 106.202 563.697 98.3755 563.697C90.5489 563.697 84.204 566.082 84.204 569.017C84.204 571.956 90.5489 574.337 98.3755 574.337Z" fill="#BAE8E8"/>
<path d="M77.1185 499.861C87.6843 499.861 96.25 491.287 96.25 480.71C96.25 470.133 87.6843 461.56 77.1185 461.56C66.5524 461.56 57.9871 470.133 57.9871 480.71C57.9871 491.287 66.5524 499.861 77.1185 499.861Z" fill="white"/>
<path d="M21.4013 442.786C16.8814 422.523 31.3297 402.049 53.6727 397.054C76.0154 392.064 97.7921 404.441 102.312 424.701C106.832 444.964 92.0244 452.439 69.6816 457.434C47.3389 462.425 25.9212 463.05 21.4013 442.786Z" fill="#6C63FF"/>
<path d="M126.025 436.601C132.539 422.568 134.252 409.532 129.852 407.487C125.451 405.439 116.603 415.155 110.089 429.189C103.575 443.219 101.862 456.255 106.263 458.303C110.663 460.347 119.511 450.631 126.025 436.601Z" fill="#BAE8E8"/>
<path d="M28.4079 474.681C32.6967 472.407 30.3112 459.478 23.0797 445.803C15.8482 432.128 6.50906 422.882 2.22016 425.155C-2.06872 427.429 0.316775 440.358 7.5483 454.033C14.7798 467.708 24.119 476.951 28.4079 474.681Z" fill="#BAE8E8"/>
<path d="M87.393 388.122C116.854 388.122 140.738 364.216 140.738 334.725C140.738 305.233 116.854 281.326 87.393 281.326C57.9312 281.326 34.0481 305.233 34.0481 334.725C34.0481 364.216 57.9312 388.122 87.393 388.122Z" fill="#BAE8E8"/>
<path d="M71.9619 374.518L56.0151 371.627L50.8429 400.227L66.7897 403.118L71.9619 374.518Z" fill="#BAE8E8"/>
<path d="M103.856 380.296L87.9087 377.409L82.7366 406.009L98.6834 408.896L103.856 380.296Z" fill="#BAE8E8"/>
<path d="M103.797 419.784C105.604 417.647 102.456 412.005 96.7639 407.181C91.0723 402.352 84.9929 400.175 83.1854 402.312C81.3776 404.449 84.5263 410.09 90.2179 414.915C95.9099 419.743 101.989 421.921 103.797 419.784Z" fill="#BAE8E8"/>
<path d="M72.5675 414.124C74.3753 411.99 71.2266 406.345 65.5346 401.521C59.843 396.696 53.7635 394.515 51.9561 396.652C50.1482 398.788 53.297 404.43 58.989 409.258C64.6806 414.083 70.76 416.261 72.5675 414.124Z" fill="#BAE8E8"/>
<path d="M91.1277 339.913C101.197 339.913 109.359 331.742 109.359 321.663C109.359 311.584 101.197 303.413 91.1277 303.413C81.0585 303.413 72.8958 311.584 72.8958 321.663C72.8958 331.742 81.0585 339.913 91.1277 339.913Z" fill="white"/>

<path d="M45.3118 276.633C44.5095 256.864 61.5304 240.119 83.3289 239.233C105.127 238.347 123.449 253.654 124.251 273.423C125.053 293.192 109.9 297.684 88.1018 298.57C66.3036 299.456 46.114 296.402 45.3118 276.633Z" fill="#6C63FF"/>
<path d="M138.52 333.166C152.879 329.872 163.681 323.543 162.648 319.031C161.615 314.519 149.137 313.532 134.779 316.827C120.421 320.121 109.618 326.45 110.651 330.962C111.684 335.474 124.162 336.461 138.52 333.166Z" fill="#BAE8E8"/>
<path d="M33.8065 350.598C48.1647 347.303 58.9671 340.975 57.9338 336.463C56.9005 331.951 44.4233 330.964 30.0649 334.258C15.7065 337.552 4.90428 343.881 5.93749 348.393C6.97071 352.905 19.4481 353.892 33.8065 350.598Z" fill="#BAE8E8"/>
<path d="M72.742 355.769C72.1679 358.944 72.8773 362.217 74.714 364.869C76.5511 367.521 79.3649 369.333 82.537 369.907C85.709 370.484 88.9794 369.774 91.6284 367.934C94.2773 366.095 96.0881 363.278 96.6623 360.103C97.8579 353.491 92.7512 351.151 86.1456 349.954C79.5401 348.758 73.938 349.156 72.742 355.769Z" fill="white"/>

<circle cx="478.5" cy="554.5" r="6.5" fill="#272343"/>
<circle cx="99" cy="315" r="6" fill="#272343"/>
<circle cx="77" cy="472" r="6" fill="#272343"/>

<circle id="svg-circle-1" cx="421" cy="241" r="22" fill="#6C63FF" fill-opacity="0.4"/>
<circle id="svg-circle-2" cx="375" cy="249" r="16" fill="#6C63FF" fill-opacity="0.4"/>

<animate 
xlink:href="#svg-circle-1"
attributeName="cy"
from="241"
to="241" 
dur="2s"
begin="1s"
values="241; 251; 241"
keyTimes="0; 0.5; 1"
repeatCount="indefinite"
fill="freeze"
d="circ-anim" />

<animate 
xlink:href="#svg-circle-2"
attributeName="cy"
from="249"
to="249"
dur="2s"
begin="2s"
values="249; 259; 249"
keyTimes="0; 0.5; 1"
repeatCount="indefinite"
fill="freeze" />

</g>
<defs>
<filter id="filter0_d" x="113.738" y="-9.93481" width="431.544" height="607.159" filterUnits="userSpaceOnUse" color-interpolation-filters="sRGB">
<feFlood flood-opacity="0" result="BackgroundImageFix"/>
<feColorMatrix in="SourceAlpha" type="matrix" values="0 0 0 0 0 0 0 0 0 0 0 0 0 0 0 0 0 0 127 0"/>
<feOffset dx="16" dy="16"/>
<feGaussianBlur stdDeviation="16"/>
<feColorMatrix type="matrix" values="0 0 0 0 0 0 0 0 0 0 0 0 0 0 0 0 0 0 0.4 0"/>
<feBlend mode="normal" in2="BackgroundImageFix" result="effect1_dropShadow"/>
<feBlend mode="normal" in="SourceGraphic" in2="effect1_dropShadow" result="shape"/>
</filter>
<clipPath id="clip0">
<rect width="576" height="654" fill="white"/>
</clipPath>
</defs>
</svg>
