<svg viewBox="0 0 1558 1769" fill="none" xmlns="http://www.w3.org/2000/svg">
<g filter="url(#filter0_d)">
<g clip-path="url(#clip0)">
<rect x="448.344" y="15.3292" width="900" height="1412" rx="16" transform="rotate(4 448.344 15.3292)" fill="white"/>
<path d="M1250.85 375.347L1205.52 393.758L1246.41 366.441C1240.81 355.813 1234.41 345.669 1227.25 336.107L1033.77 371.729L1210.19 315.927C1202.84 308.212 1194.97 301.054 1186.63 294.51L893.648 322.557C860.116 360.219 839.896 408.5 836.307 459.474L1272.24 489.958C1274.99 450.422 1267.61 410.887 1250.85 375.347Z" fill="#F2F2F2"/>
<path d="M1051.52 474.523L921.183 234.848C921.183 234.848 1137.16 332.014 1101.66 478.03L1051.52 474.523Z" fill="#272343"/>
<path d="M1058.29 474.997L1221.45 255.844C1221.45 255.844 992.942 321.93 1007.89 471.473L1058.29 474.997Z" fill="#6C63FF"/>
<path d="M655.169 297.444L458.649 283.702L457.044 306.646L653.564 320.388L655.169 297.444Z" fill="#6C63FF"/>
<path d="M786.052 346.694L455.858 323.604L454.952 336.573L785.145 359.662L786.052 346.694Z" fill="#F2F2F2"/>
<path d="M767.001 375.435L453.766 353.531L452.789 367.497L766.024 389.401L767.001 375.435Z" fill="#F2F2F2"/>
<path d="M680.045 400.43L451.603 384.456L450.696 397.424L679.139 413.398L680.045 400.43Z" fill="#F2F2F2"/>
<path d="M447.228 31.2902C447.845 22.4752 455.49 15.8289 464.305 16.4453L1330.19 76.9939C1339.01 77.6104 1345.65 85.256 1345.04 94.0711L1336.29 219.178L438.48 156.397L447.228 31.2902Z" fill="#6C63FF" fill-opacity="0.11"/>

<circle cx="512.678" cy="89.6781" r="17.5" fill="#BAE8E8"/>
<ellipse cx="571.036" cy="93.7589" rx="18" ry="17.5" fill="#FF6363"/>
<circle cx="629.393" cy="97.8396" r="17.5" fill="#FFEF63"/>

<path opacity="0.3" d="M1284.05 521.859L446.093 463.263L445.046 478.227L1283 536.822L1284.05 521.859Z" fill="#6C63FF"/>
<path opacity="0.3" d="M577.476 850.344L460.436 842.16L453.136 946.558L570.176 954.742L577.476 850.344Z" fill="#6C63FF"/>

<path d="M909.648 873.599L791.886 865.364L784.559 970.136L902.321 978.371L909.648 873.599Z" fill="#272343"/>
<path d="M828.128 972.74L826.577 972.601C826.73 970.888 830.529 930.507 847.274 920.443L848.078 921.774C832.009 931.432 828.165 972.328 828.128 972.74Z" fill="#6C63FF"/>
<path d="M855.525 920.506C859.815 920.806 863.535 917.58 863.835 913.3C864.134 909.021 860.899 905.308 856.608 905.008C852.318 904.708 848.598 907.934 848.298 912.214C847.999 916.494 851.235 920.206 855.525 920.506Z" fill="#6C63FF"/>
<path d="M852.582 940.008C848.453 940.992 844.137 940.876 840.066 939.673C842.925 936.522 846.636 934.263 850.753 933.169C854.87 932.074 859.216 932.191 863.269 933.504C860.34 936.568 856.654 938.811 852.582 940.008Z" fill="#6C63FF"/>
<path d="M1218.89 895.223L1101.13 886.989L1093.8 991.761L1211.57 999.995L1218.89 895.223Z" fill="#272343"/>
<path d="M1137.37 994.365L1135.82 994.226C1135.97 992.512 1139.77 952.131 1156.52 942.068L1157.32 943.398C1141.25 953.056 1137.41 993.953 1137.37 994.365Z" fill="#6C63FF"/>
<path d="M1164.77 942.13C1169.06 942.43 1172.78 939.204 1173.08 934.925C1173.38 930.645 1170.14 926.933 1165.85 926.633C1161.56 926.333 1157.84 929.559 1157.54 933.838C1157.24 938.118 1160.48 941.83 1164.77 942.13Z" fill="#6C63FF"/>
<path d="M1161.83 961.633C1157.7 962.616 1153.38 962.501 1149.31 961.297C1152.17 958.147 1155.88 955.888 1160 954.793C1164.11 953.699 1168.46 953.815 1172.51 955.128C1169.58 958.193 1165.9 960.436 1161.83 961.633V961.633Z" fill="#6C63FF"/>
<path d="M565.011 813.058L454.568 771.435L417.388 869.685L527.831 911.308L565.011 813.058Z" fill="#272343"/>
<path d="M458.376 884.66L456.93 884.083C457.57 882.485 472.835 844.897 491.773 840.056L492.16 841.56C473.985 846.207 458.53 884.276 458.376 884.66Z" fill="#6C63FF"/>
<path d="M501.866 842.962C506.156 843.262 509.877 840.035 510.176 835.756C510.475 831.476 507.24 827.764 502.95 827.464C498.659 827.164 494.939 830.39 494.64 834.669C494.341 838.949 497.576 842.662 501.866 842.962Z" fill="#6C63FF"/>
<path d="M491.225 860.315C486.986 860.074 482.885 858.727 479.331 856.409C482.977 854.21 487.182 853.11 491.441 853.241C495.7 853.372 499.831 854.728 503.335 857.147C499.646 859.243 495.47 860.335 491.225 860.315V860.315Z" fill="#6C63FF"/>
<path d="M1280.84 567.747L442.884 509.151L427.746 725.623L1265.7 784.218L1280.84 567.747Z" fill="#272343"/>
<path d="M675.26 583.542L468.765 569.103L467.16 592.047L673.656 606.486L675.26 583.542Z" fill="#6C63FF"/>
<path d="M813.127 633.28L465.974 609.005L464.998 622.971L812.15 647.246L813.127 633.28Z" fill="#F2F2F2"/>
<path d="M792.08 661.882L463.882 638.932L462.905 652.898L791.104 675.848L792.08 661.882Z" fill="#F2F2F2"/>
<path d="M701.135 686.598L461.719 669.857L460.743 683.823L700.158 700.564L701.135 686.598Z" fill="#F2F2F2"/>

<path id="circle-1" opacity="0.4" d="M1124.13 711.17C1156.44 713.429 1184.46 689.132 1186.72 656.901C1188.97 624.669 1164.6 596.709 1132.29 594.45C1099.98 592.19 1071.96 616.488 1069.71 648.719C1067.45 680.95 1091.82 708.911 1124.13 711.17Z" fill="#6C63FF"/>
<path id="circle-2" opacity="0.4" d="M1015.12 714.051C1037.79 715.636 1057.45 698.592 1059.03 675.982C1060.61 653.372 1043.52 633.758 1020.85 632.173C998.184 630.588 978.528 647.632 976.947 670.242C975.366 692.852 992.459 712.466 1015.12 714.051Z" fill="#6C63FF"/>

<!-- Animation -->

<!-- -->

<path d="M801.011 1107.59L402.983 1079.76L399.844 1124.65L797.872 1152.48L801.011 1107.59Z" fill="#6C63FF"/>
<path d="M1066.98 1203.38L397.612 1156.57L395.728 1183.5L1065.09 1230.31L1066.98 1203.38Z" fill="#F2F2F2"/>
<path d="M1025.95 1259.65L393.496 1215.43L391.613 1242.36L1024.07 1286.59L1025.95 1259.65Z" fill="#F2F2F2"/>
<path d="M851.322 1305.58L389.45 1273.29L387.427 1302.21L849.299 1334.51L851.322 1305.58Z" fill="#F2F2F2"/>
</g>
</g>
<path d="M1178.37 1495.35C1191.22 1490.39 1188.85 1453.17 1173.08 1412.21C1157.31 1371.25 1134.11 1342.06 1121.26 1347.02C1108.41 1351.97 1110.79 1389.2 1126.56 1430.16C1142.33 1471.12 1165.53 1500.31 1178.37 1495.35Z" fill="#BAE8E8"/>
<path d="M1296.94 1699.79C1384.65 1699.79 1455.75 1628.62 1455.75 1540.82C1455.75 1453.02 1384.65 1381.85 1296.94 1381.85C1209.23 1381.85 1138.13 1453.02 1138.13 1540.82C1138.13 1628.62 1209.23 1699.79 1296.94 1699.79Z" fill="#BAE8E8"/>
<path d="M1321.65 1752.03L1369.89 1751.9L1369.65 1665.37L1321.41 1665.5L1321.65 1752.03Z" fill="#BAE8E8"/>
<path d="M1225.16 1752.31L1273.41 1752.18L1273.17 1665.65L1224.92 1665.78L1225.16 1752.31Z" fill="#BAE8E8"/>
<path d="M1329.74 1768.12C1351.95 1768.05 1369.93 1761.25 1369.9 1752.91C1369.88 1744.58 1351.86 1737.87 1329.66 1737.93C1307.45 1737.99 1289.47 1744.8 1289.49 1753.14C1289.52 1761.47 1307.54 1768.18 1329.74 1768.12Z" fill="#BAE8E8"/>
<path d="M1233.24 1766.37C1255.45 1766.31 1273.43 1759.51 1273.41 1751.17C1273.38 1742.83 1255.36 1736.13 1233.16 1736.19C1210.95 1736.25 1192.97 1743.06 1193 1751.4C1193.02 1759.73 1211.04 1766.44 1233.24 1766.37Z" fill="#BAE8E8"/>
<path d="M1292.81 1554.92C1322.78 1554.92 1347.08 1530.59 1347.08 1500.58C1347.08 1470.58 1322.78 1446.25 1292.81 1446.25C1262.83 1446.25 1238.53 1470.58 1238.53 1500.58C1238.53 1530.59 1262.83 1554.92 1292.81 1554.92Z" fill="white"/>
<path d="M1292.81 1518.69C1302.8 1518.69 1310.9 1510.59 1310.9 1500.58C1310.9 1490.58 1302.8 1482.47 1292.81 1482.47C1282.81 1482.47 1274.71 1490.58 1274.71 1500.58C1274.71 1510.59 1282.81 1518.69 1292.81 1518.69Z" fill="#272343"/>
<path d="M1450.58 1392.55C1463.24 1335.02 1422.09 1277.05 1358.66 1263.06C1295.23 1249.07 1233.55 1284.36 1220.89 1341.88C1208.23 1399.4 1250.29 1420.49 1313.72 1434.48C1377.15 1448.47 1437.91 1450.07 1450.58 1392.55Z" fill="#6C63FF"/>
<path d="M1486.35 1489.07C1525.92 1470.15 1553.19 1444.72 1547.25 1432.29C1541.32 1419.85 1504.43 1425.11 1464.86 1444.04C1425.29 1462.96 1398.02 1488.38 1403.96 1500.82C1409.89 1513.25 1446.78 1507.99 1486.35 1489.07Z" fill="#BAE8E8"/>
<path d="M1375.11 1597.95C1375.15 1613.51 1335.22 1644.34 1290.81 1644.47C1246.4 1644.59 1204.64 1600.91 1204.59 1585.35C1204.55 1569.79 1246.24 1588.25 1290.65 1588.12C1335.06 1588 1375.06 1582.39 1375.11 1597.95Z" fill="white"/>
<path d="M204.761 1490.21C288.383 1490.21 356.172 1422.35 356.172 1338.64C356.172 1254.94 288.383 1187.08 204.761 1187.08C121.139 1187.08 53.3503 1254.94 53.3503 1338.64C53.3503 1422.35 121.139 1490.21 204.761 1490.21Z" fill="#BAE8E8"/>
<path d="M181.762 1457.59H135.764V1540.09H181.762V1457.59Z" fill="#BAE8E8"/>
<path d="M273.758 1457.59H227.76V1540.09H273.758V1457.59Z" fill="#BAE8E8"/>
<path d="M174.096 1555.44C195.266 1555.44 212.428 1549 212.428 1541.05C212.428 1533.1 195.266 1526.66 174.096 1526.66C152.926 1526.66 135.764 1533.1 135.764 1541.05C135.764 1549 152.926 1555.44 174.096 1555.44Z" fill="#BAE8E8"/>
<path d="M266.092 1553.52C287.262 1553.52 304.424 1547.08 304.424 1539.13C304.424 1531.19 287.262 1524.74 266.092 1524.74C244.922 1524.74 227.76 1531.19 227.76 1539.13C227.76 1547.08 244.922 1553.52 266.092 1553.52Z" fill="#BAE8E8"/>
<path d="M208.595 1352.07C237.174 1352.07 260.343 1328.88 260.343 1300.27C260.343 1271.66 237.174 1248.47 208.595 1248.47C180.015 1248.47 156.847 1271.66 156.847 1300.27C156.847 1328.88 180.015 1352.07 208.595 1352.07Z" fill="white"/>
<path d="M208.595 1294.52C218.121 1294.52 225.844 1286.79 225.844 1277.25C225.844 1267.71 218.121 1259.98 208.595 1259.98C199.068 1259.98 191.345 1267.71 191.345 1277.25C191.345 1286.79 199.068 1294.52 208.595 1294.52Z" fill="#272343"/>
<path d="M57.8874 1197.69C45.6616 1142.88 84.7424 1087.5 145.177 1073.99C205.611 1060.49 264.514 1093.97 276.739 1148.77C288.965 1203.58 248.913 1223.8 188.479 1237.31C128.045 1250.81 70.1131 1252.5 57.8874 1197.69Z" fill="#6C63FF"/>
<path d="M340.881 1180.96C358.5 1143 363.134 1107.74 351.231 1102.21C339.327 1096.67 315.394 1122.95 297.775 1160.91C280.156 1198.86 275.522 1234.12 287.426 1239.66C299.329 1245.19 323.262 1218.91 340.881 1180.96Z" fill="#BAE8E8"/>
<path d="M76.8392 1283.96C88.44 1277.81 81.9876 1242.84 62.4273 1205.85C42.867 1168.86 17.606 1143.85 6.00514 1150C-5.59568 1156.15 0.856742 1191.12 20.417 1228.11C39.9773 1265.1 65.2384 1290.1 76.8392 1283.96Z" fill="#BAE8E8"/>
<path d="M236.386 1049.83C316.075 1049.83 380.676 985.166 380.676 905.395C380.676 825.624 316.075 760.957 236.386 760.957C156.696 760.957 92.0955 825.624 92.0955 905.395C92.0955 985.166 156.696 1049.83 236.386 1049.83Z" fill="#BAE8E8"/>
<path d="M194.647 1013.03L151.513 1005.21L137.523 1082.57L180.657 1090.39L194.647 1013.03Z" fill="#BAE8E8"/>
<path d="M280.915 1028.66L237.781 1020.85L223.791 1098.21L266.925 1106.02L280.915 1028.66Z" fill="#BAE8E8"/>
<path d="M280.756 1135.47C285.645 1129.69 277.129 1114.43 261.733 1101.38C246.338 1088.32 229.894 1082.43 225.005 1088.21C220.115 1093.99 228.632 1109.25 244.027 1122.3C259.423 1135.36 275.867 1141.25 280.756 1135.47Z" fill="#BAE8E8"/>
<path d="M196.285 1120.16C201.175 1114.39 192.658 1099.12 177.262 1086.07C161.867 1073.02 145.423 1067.12 140.534 1072.9C135.644 1078.68 144.161 1093.94 159.557 1107C174.952 1120.05 191.396 1125.94 196.285 1120.16Z" fill="#BAE8E8"/>
<path d="M246.488 919.429C273.723 919.429 295.802 897.328 295.802 870.064C295.802 842.801 273.723 820.7 246.488 820.7C219.252 820.7 197.173 842.801 197.173 870.064C197.173 897.328 219.252 919.429 246.488 919.429Z" fill="white"/>
<path d="M266.756 868.825C275.835 868.825 283.194 861.458 283.194 852.37C283.194 843.282 275.835 835.915 266.756 835.915C257.677 835.915 250.318 843.282 250.318 852.37C250.318 861.458 257.677 868.825 266.756 868.825Z" fill="#272343"/>
<path d="M122.562 748.262C120.392 694.789 166.431 649.497 225.393 647.099C284.354 644.702 333.912 686.106 336.081 739.58C338.251 793.053 297.265 805.202 238.303 807.6C179.342 809.997 124.732 801.735 122.562 748.262Z" fill="#6C63FF"/>
<path d="M374.678 901.179C413.516 892.268 442.734 875.15 439.94 862.945C437.145 850.741 403.396 848.071 364.558 856.982C325.721 865.893 296.502 883.011 299.297 895.216C302.091 907.421 335.841 910.091 374.678 901.179Z" fill="#BAE8E8"/>
<path d="M91.4419 948.329C130.279 939.418 159.498 922.3 156.703 910.095C153.908 897.891 120.159 895.221 81.3215 904.132C42.484 913.043 13.2655 930.161 16.0602 942.366C18.8549 954.571 52.6044 957.241 91.4419 948.329Z" fill="#BAE8E8"/>
<path d="M196.757 962.316C195.204 970.905 197.123 979.759 202.091 986.932C207.06 994.104 214.671 999.007 223.251 1000.56C231.831 1002.12 240.677 1000.2 247.842 995.222C255.007 990.249 259.905 982.629 261.458 974.041C264.692 956.156 250.879 949.827 233.012 946.589C215.145 943.352 199.992 944.431 196.757 962.316Z" fill="white"/>
<defs>
<filter id="filter0_d" x="333.848" y="-0.670776" width="1060.3" height="1535.34" filterUnits="userSpaceOnUse" color-interpolation-filters="sRGB">
<feFlood flood-opacity="0" result="BackgroundImageFix"/>
<feColorMatrix in="SourceAlpha" type="matrix" values="0 0 0 0 0 0 0 0 0 0 0 0 0 0 0 0 0 0 127 0"/>
<feOffset dx="16" dy="16"/>
<feGaussianBlur stdDeviation="16"/>
<feColorMatrix type="matrix" values="0 0 0 0 0 0 0 0 0 0 0 0 0 0 0 0 0 0 0.4 0"/>
<feBlend mode="normal" in2="BackgroundImageFix" result="effect1_dropShadow"/>
<feBlend mode="normal" in="SourceGraphic" in2="effect1_dropShadow" result="shape"/>
</filter>
<clipPath id="clip0">
<rect x="448.344" y="15.3292" width="900" height="1412" rx="16" transform="rotate(4 448.344 15.3292)" fill="white"/>
</clipPath>
</defs>
</svg>
