<svg width="120" height="38" viewBox="0 0 120 38" fill="none" xmlns="http://www.w3.org/2000/svg">
<g clip-path="url(#clip0)">
<path d="M18.7218 37.4436C29.0616 37.4436 37.4436 29.0616 37.4436 18.7218C37.4436 8.38204 29.0616 0 18.7218 0C8.38204 0 0 8.38204 0 18.7218C0 29.0616 8.38204 37.4436 18.7218 37.4436Z" fill="#272343" fill-opacity="0.5"/>
<path fill-rule="evenodd" clip-rule="evenodd" d="M22.7887 23.4925C22.7723 23.601 22.6787 23.6842 22.5656 23.6842C22.5625 23.6842 22.5595 23.6841 22.5564 23.684V23.6842H14.4361C14.3115 23.6842 14.2105 23.5832 14.2105 23.4586H14.2013C14.0867 22.0693 12.9227 20.9774 11.5038 20.9774C10.0848 20.9774 8.92089 22.0693 8.80627 23.4586H8.80616C8.80616 23.4591 8.80616 23.4596 8.80616 23.46C8.80529 23.4706 8.80449 23.4812 8.80374 23.4918C8.78769 23.6007 8.6939 23.6842 8.5806 23.6842C8.57753 23.6842 8.57448 23.6841 8.57144 23.684V23.6842H7.89475C7.77018 23.6842 7.66919 23.5832 7.66919 23.4586V23.0075C7.66919 22.8829 7.77018 22.782 7.89475 22.782L7.89475 19.8496C7.89475 19.725 7.99574 19.6241 8.12032 19.6241H25.4911C26.6968 19.6241 27.7796 20.1498 28.5228 20.9846C28.5788 21.0475 28.6492 21.1354 28.734 21.2484C28.8192 21.3618 28.9528 21.4286 29.0947 21.4286V21.4286H29.332C29.4991 21.4286 29.7222 21.4286 30.0015 21.4286C30.25 21.4294 30.4511 21.631 30.4511 21.8797V23.2331C30.4511 23.4822 30.2492 23.6842 30 23.6842H28.4211V23.684C28.4181 23.6841 28.415 23.6842 28.412 23.6842C28.2982 23.6842 28.2041 23.6 28.1887 23.4904C28.188 23.4808 28.1873 23.4711 28.1865 23.4614C28.1865 23.4605 28.1865 23.4596 28.1865 23.4586H28.1862C28.0716 22.0693 26.9077 20.9774 25.4887 20.9774C24.0698 20.9774 22.9059 22.0693 22.7912 23.4586H22.7912C22.7912 23.4589 22.7912 23.4591 22.7912 23.4594C22.7903 23.4704 22.7894 23.4814 22.7887 23.4925ZM30 20.3007C30 20.4253 29.899 20.5263 29.7745 20.5263H29.4198C29.3554 20.5263 29.2941 20.4988 29.2513 20.4507L29.2513 20.4507C29.1033 20.2844 28.9861 20.1604 28.8998 20.0787C28.0111 19.2376 26.8114 18.7218 25.4911 18.7218H8.12032C7.99574 18.7218 7.89475 18.6208 7.89475 18.4962L7.89475 13.2487C7.89475 12.2364 8.64051 11.3789 9.643 11.2383C12.6715 10.8138 15.5226 10.6015 18.1965 10.6015C22.9704 10.6015 24.8265 10.9815 26.6166 11.9549C27.7066 12.5476 28.7419 13.979 29.7226 16.249C29.9056 16.6727 30 17.1293 30 17.5909V20.3007ZM7.89475 18.9474H7.89475V19.3985H7.89475V18.9474ZM9.24814 13.0827C9.12356 13.0827 9.02257 13.1837 9.02257 13.3083V16.6917C9.02257 16.8163 9.12356 16.9173 9.24814 16.9173H12.6316C12.7562 16.9173 12.8572 16.8163 12.8572 16.6917V13.3083C12.8572 13.1837 12.7562 13.0827 12.6316 13.0827H9.24814ZM18.7218 13.0827C18.5972 13.0827 18.4963 13.1837 18.4963 13.3083V16.6917C18.4963 16.8163 18.5972 16.9173 18.7218 16.9173H22.1053C22.2299 16.9173 22.3308 16.8163 22.3308 16.6917V13.3083C22.3308 13.1837 22.2299 13.0827 22.1053 13.0827H18.7218ZM13.985 13.0827C13.8604 13.0827 13.7594 13.1837 13.7594 13.3083V16.6917C13.7594 16.8163 13.8604 16.9173 13.985 16.9173H17.3684C17.493 16.9173 17.594 16.8163 17.594 16.6917V13.3083C17.594 13.1837 17.493 13.0827 17.3684 13.0827H13.985ZM23.4587 13.0827C23.3341 13.0827 23.2331 13.1837 23.2331 13.3083V16.6917C23.2331 16.8163 23.3341 16.9173 23.4587 16.9173H28.6602C28.6878 16.9173 28.7152 16.9122 28.741 16.9023C28.8573 16.8577 28.9154 16.7272 28.8707 16.6109L28.8708 16.6109C28.6235 15.967 28.3378 15.3748 28.0136 14.8343C27.9648 14.7531 27.92 14.6725 27.8791 14.5927C27.4045 13.6658 26.4509 13.0827 25.4095 13.0827L23.4587 13.0827ZM11.5038 25.4887C10.5072 25.4887 9.69926 24.6808 9.69926 23.6842C9.69926 22.6876 10.5072 21.8797 11.5038 21.8797C12.5004 21.8797 13.3083 22.6876 13.3083 23.6842C13.3083 24.6808 12.5004 25.4887 11.5038 25.4887ZM11.5038 24.5865C12.0021 24.5865 12.406 24.1825 12.406 23.6842C12.406 23.1859 12.0021 22.782 11.5038 22.782C11.0055 22.782 10.6015 23.1859 10.6015 23.6842C10.6015 24.1825 11.0055 24.5865 11.5038 24.5865ZM25.4887 25.4887C24.4921 25.4887 23.6842 24.6808 23.6842 23.6842C23.6842 22.6876 24.4921 21.8797 25.4887 21.8797C26.4853 21.8797 27.2932 22.6876 27.2932 23.6842C27.2932 24.6808 26.4853 25.4887 25.4887 25.4887ZM25.4887 24.5865C25.987 24.5865 26.391 24.1825 26.391 23.6842C26.391 23.1859 25.987 22.782 25.4887 22.782C24.9904 22.782 24.5865 23.1859 24.5865 23.6842C24.5865 24.1825 24.9904 24.5865 25.4887 24.5865Z" fill="white"/>
<path fill-rule="evenodd" clip-rule="evenodd" d="M49.1746 18.0247H54.0782C53.6561 17.0909 52.717 16.4412 51.6264 16.4412C50.5358 16.4412 49.5967 17.0909 49.1746 18.0247ZM56.5777 20.0832C56.523 20.1779 56.4208 20.2416 56.3036 20.2416H49.1746C49.5967 21.1753 50.5358 21.825 51.6264 21.825C52.1498 21.825 52.6383 21.6754 53.0515 21.4165C53.1435 21.3589 53.2597 21.2689 53.4 21.1466C53.5117 21.0493 53.6624 21.0097 53.8075 21.0396L55.663 21.4221C55.8342 21.4574 55.9444 21.6249 55.9091 21.7962C55.9014 21.834 55.8868 21.87 55.8661 21.9025C55.8471 21.9322 55.8296 21.9589 55.8136 21.9825C55.3541 22.6575 54.7359 23.2157 54.0128 23.6032C53.3018 23.9842 52.4893 24.2002 51.6264 24.2002C48.8302 24.2002 46.5635 21.9316 46.5635 19.1331C46.5635 16.3346 48.8302 14.066 51.6264 14.066C54.4226 14.066 56.6893 16.3346 56.6893 19.1331C56.6893 19.4579 56.6588 19.7755 56.6004 20.0832H56.5777ZM43.0828 23.5555V10.3872C43.0828 10.2314 43.1923 10.0972 43.3449 10.0658L45.0619 9.71321C45.2394 9.67676 45.4128 9.7911 45.4493 9.96859C45.4537 9.99031 45.456 10.0124 45.456 10.0346V23.5555C45.456 23.7367 45.3091 23.8835 45.1279 23.8835H43.4109C43.2297 23.8835 43.0828 23.7367 43.0828 23.5555ZM66.6661 23.8835H64.7609C64.6206 23.8835 64.4959 23.7944 64.4505 23.6616L61.426 14.8169C61.3674 14.6455 61.4589 14.459 61.6303 14.4003C61.6645 14.3887 61.7004 14.3827 61.7365 14.3827H63.4162C63.5565 14.3827 63.6813 14.4719 63.7267 14.6046L65.5583 19.9609C65.5876 20.0467 65.6808 20.0924 65.7666 20.0631C65.8146 20.0467 65.8523 20.009 65.8687 19.9609L67.7003 14.6046C67.7457 14.4719 67.8704 14.3827 68.0107 14.3827H69.9155C70.0557 14.3827 70.1805 14.4719 70.2259 14.6046L72.0575 19.9609C72.0868 20.0467 72.18 20.0924 72.2658 20.0631C72.3138 20.0467 72.3515 20.009 72.3679 19.9609L74.1995 14.6046C74.2449 14.4719 74.3697 14.3827 74.5099 14.3827H76.1897C76.3709 14.3827 76.5178 14.5296 76.5178 14.7108C76.5178 14.7469 76.5118 14.7828 76.5001 14.8169L73.4757 23.6616C73.4303 23.7944 73.3056 23.8835 73.1653 23.8835H71.2601C71.1198 23.8835 70.9951 23.7944 70.9497 23.6616L69.1183 18.3059C69.089 18.2202 68.9957 18.1745 68.91 18.2038C68.862 18.2202 68.8243 18.2579 68.8079 18.3059L66.9765 23.6616C66.9311 23.7944 66.8063 23.8835 66.6661 23.8835ZM84.5352 23.3232C83.7238 23.8767 82.7434 24.2002 81.6874 24.2002C78.8912 24.2002 76.6245 21.9316 76.6245 19.1331C76.6245 16.3346 78.8912 14.066 81.6874 14.066C82.7434 14.066 83.7238 14.3896 84.5352 14.943V14.6994C84.5352 14.5245 84.6769 14.3827 84.8517 14.3827H86.592C86.7668 14.3827 86.9085 14.5245 86.9085 14.6994V23.5669C86.9085 23.7418 86.7668 23.8835 86.592 23.8835H84.8517C84.6769 23.8835 84.5352 23.7418 84.5352 23.5669V23.3232ZM81.8456 21.825C83.331 21.825 84.5352 20.6198 84.5352 19.1331C84.5352 17.6464 83.331 16.4412 81.8456 16.4412C80.3601 16.4412 79.1559 17.6464 79.1559 19.1331C79.1559 20.6198 80.3601 21.825 81.8456 21.825ZM95.9268 14.943V14.6994C95.9268 14.5245 96.0684 14.3827 96.2432 14.3827H97.9836C98.1583 14.3827 98.3 14.5245 98.3 14.6994V23.5669H98.2994C98.2571 26.3726 95.9714 28.634 93.158 28.634C92.423 28.634 91.724 28.4796 91.0917 28.2016C90.924 28.1279 90.7068 28.0086 90.44 27.8439C90.251 27.7272 90.1682 27.495 90.2405 27.2849L90.8015 25.6547C90.8584 25.4893 91.0385 25.4014 91.2038 25.4584C91.2448 25.4726 91.2826 25.495 91.3146 25.5244C91.5236 25.7163 91.7045 25.853 91.8572 25.9345C92.245 26.1415 92.6878 26.2588 93.158 26.2588C94.6607 26.2588 95.8838 25.0607 95.9256 23.5669H95.9268V23.3232C95.1154 23.8767 94.1349 24.2002 93.0789 24.2002C90.2827 24.2002 88.016 21.9316 88.016 19.1331C88.016 16.3346 90.2827 14.066 93.0789 14.066C94.1349 14.066 95.1154 14.3896 95.9268 14.943ZM93.2371 21.825C94.7225 21.825 95.9268 20.6198 95.9268 19.1331C95.9268 17.6464 94.7225 16.4412 93.2371 16.4412C91.7516 16.4412 90.5474 17.6464 90.5474 19.1331C90.5474 20.6198 91.7516 21.825 93.2371 21.825ZM104.47 24.2002C101.674 24.2002 99.4075 21.9316 99.4075 19.1331C99.4075 16.3346 101.674 14.066 104.47 14.066C107.267 14.066 109.533 16.3346 109.533 19.1331C109.533 21.9316 107.267 24.2002 104.47 24.2002ZM104.47 21.825C105.956 21.825 107.16 20.6198 107.16 19.1331C107.16 17.6464 105.956 16.4412 104.47 16.4412C102.985 16.4412 101.781 17.6464 101.781 19.1331C101.781 20.6198 102.985 21.825 104.47 21.825ZM119.976 18.6581V23.5669C119.976 23.7418 119.834 23.8835 119.659 23.8835H117.76C117.586 23.8835 117.444 23.7418 117.444 23.5669V18.8164H117.439C117.442 18.7641 117.444 18.7113 117.444 18.6581C117.444 17.4337 116.452 16.4412 115.229 16.4412C114.006 16.4412 113.014 17.4337 113.014 18.6581C113.014 18.7113 113.016 18.7641 113.02 18.8164H113.014V23.5669C113.014 23.7418 112.872 23.8835 112.698 23.8835H110.957C110.782 23.8835 110.641 23.7418 110.641 23.5669V14.6994C110.641 14.5245 110.782 14.3827 110.957 14.3827H112.698C112.872 14.3827 113.014 14.5245 113.014 14.6994V14.7272C113.706 14.3076 114.519 14.066 115.387 14.066C117.921 14.066 119.976 16.1219 119.976 18.6581Z" fill="#272343" fill-opacity="0.5"/>
</g>
<defs>
<clipPath id="clip0">
<rect width="120" height="37.4436" fill="white"/>
</clipPath>
</defs>
</svg>
