<svg width="120" height="43" viewBox="0 0 120 43" fill="none" xmlns="http://www.w3.org/2000/svg">
<path d="M23.009 0.134949L46.0181 41.9703H0L23.009 0.134949ZM7.68031 38.8111L23.0155 11.0085L38.1837 38.8076L40.0671 38.8111L23.0239 7.34442L5.71441 38.8076L7.68031 38.8111Z" fill="#272343" fill-opacity="0.5"/>
<path d="M99.163 37.3819C90.204 37.3819 82.9413 30.1617 82.9413 21.2551C82.9413 12.3484 90.204 5.1282 99.163 5.1282V3.37381C89.2294 3.37381 81.1766 11.3795 81.1766 21.2551C81.1766 31.1306 89.2294 39.1363 99.163 39.1363V37.3819ZM98.9594 42.1053C87.339 42.1053 77.9187 32.7401 77.9187 21.1876C77.9187 9.63506 87.339 0.269897 98.9594 0.269897C110.58 0.269897 120 9.63506 120 21.1876C120 32.7401 110.58 42.1053 98.9594 42.1053Z" fill="#272343" fill-opacity="0.5"/>
<path d="M50.444 21.0526C48.6111 18.8297 47.5112 15.9865 47.5112 12.888C47.5112 5.77015 53.3153 0 60.475 0C67.6347 0 73.4388 5.77015 73.4388 12.888C73.4388 15.9865 72.3389 18.8297 70.5061 21.0526C72.3389 23.2756 73.4388 26.1187 73.4388 29.2173C73.4388 36.3351 67.6347 42.1053 60.475 42.1053C53.3153 42.1053 47.5112 36.3351 47.5112 29.2173C47.5112 26.1187 48.6111 23.2756 50.444 21.0526ZM63.43 20.1595C63.4279 20.1587 63.4258 20.158 63.4237 20.1572V21.9812C66.4057 23.1662 68.4162 26.0885 68.4162 29.3522C68.4162 33.6106 64.7192 37.0929 60.475 37.2525V39.0014C65.8354 39.0014 70.1809 34.6813 70.1809 29.3522C70.1809 25.8764 68.1224 22.7601 65.2774 21.0375C68.1239 19.3971 70.1809 16.5171 70.1809 13.0389C70.1809 7.70982 65.8354 3.38976 60.475 3.38976V5.14989C64.9777 5.31927 68.4162 8.78048 68.4162 13.0389C68.4162 16.3026 66.412 18.925 63.43 20.11V20.1595Z" fill="#272343" fill-opacity="0.5"/>
</svg>
