<svg width="120" height="17" viewBox="0 0 120 17" fill="none" xmlns="http://www.w3.org/2000/svg">
<g clip-path="url(#clip0)">
<path d="M4.72155 16.3714L0.284424 0.0857086H4.26644L6.65566 10.2371L9.61377 0.0857086H13.4251L16.3832 10.2371L18.8293 0.0857086H22.8114L18.3742 16.3714H14.6766L11.6048 5.89429L8.53291 16.3714H4.72155Z" fill="#272343" fill-opacity="0.5"/>
<path d="M24.3472 3.23427V0.139984H28.1017V3.23427H24.3472ZM24.3472 16.3714V5.18856H28.1017V16.3714H24.3472Z" fill="#272343" fill-opacity="0.5"/>
<path d="M30.6616 16.3715V5.1886H34.0748V7.03432C34.4161 6.38289 34.8712 5.89431 35.3263 5.62289C35.7814 5.35146 36.464 5.1886 37.3173 5.1886H37.9999V8.17431H37.488C36.6916 8.17431 36.0658 8.28288 35.5539 8.55431C35.0419 8.82573 34.7006 9.20575 34.4161 9.69432V16.3715H30.6616Z" fill="#272343" fill-opacity="0.5"/>
<path d="M45.3383 16.6429C44.3712 16.6429 43.461 16.48 42.6647 16.2086C41.8682 15.9372 41.1856 15.5029 40.6167 15.0143C40.0479 14.4714 39.5928 13.8743 39.2515 13.1686C38.9102 12.4628 38.7964 11.6486 38.7964 10.78C38.7964 9.91144 38.967 9.09716 39.2515 8.39142C39.5359 7.68572 39.991 7.03429 40.503 6.54572C41.0149 6.05714 41.6976 5.62286 42.4371 5.35143C43.1766 5.08 43.973 4.91714 44.8263 4.91714C46.3622 4.91714 47.6138 5.29714 48.6377 6.05714C49.6617 6.81714 50.2874 7.90286 50.6287 9.2057V12.0829H42.4371C42.6078 12.68 43.006 13.1143 43.5748 13.44C44.1437 13.7114 44.8263 13.8743 45.6227 13.8743L49.7185 12.6257V15.3943C49.1497 15.72 48.5239 16.0457 47.7844 16.2629C46.9311 16.5343 46.1916 16.6429 45.3383 16.6429ZM44.7126 7.63143C44.0868 7.63143 43.518 7.79429 43.0629 8.12C42.6078 8.44573 42.3233 8.87999 42.2096 9.53142H47.1587C47.0449 8.9343 46.7605 8.44573 46.3054 8.12C45.8503 7.79429 45.3952 7.63143 44.7126 7.63143Z" fill="#272343" fill-opacity="0.5"/>
<path d="M61.6079 16.3714V15.1228C61.0959 15.6114 60.5271 15.9914 59.8444 16.2628C59.1618 16.5343 58.4792 16.6429 57.7396 16.6429C57.0001 16.6429 56.2606 16.48 55.578 16.2086C54.8953 15.9371 54.2696 15.5029 53.7576 15.0143C53.2456 14.5257 52.8474 13.8743 52.5061 13.1686C52.2217 12.4629 52.051 11.6486 52.051 10.78C52.051 9.91141 52.2217 9.09713 52.5061 8.39142C52.7905 7.68572 53.2456 7.03429 53.7576 6.54572C54.2696 6.05715 54.8953 5.62285 55.578 5.35141C56.2606 5.08001 57.0001 4.91715 57.7396 4.91715C58.3654 4.91715 58.9342 5.0257 59.5031 5.18855C60.072 5.40572 60.6408 5.67713 61.0959 6.00284V0.0857086H64.8504V16.3714H61.6079ZM58.4792 13.3857C59.2187 13.3857 59.7875 13.1686 60.2995 12.7343C60.8115 12.3 61.0959 11.7028 61.0959 10.9429V10.8343C61.0959 10.0743 60.8115 9.42284 60.2995 8.93427C59.7875 8.4457 59.1618 8.22857 58.4223 8.22857C57.6828 8.22857 57.057 8.4457 56.545 8.93427C56.033 9.42284 55.8055 10.02 55.8055 10.8343C55.8055 11.5943 56.033 12.2457 56.545 12.7343C57.057 13.2229 57.7396 13.3857 58.4792 13.3857Z" fill="#272343" fill-opacity="0.5"/>
<path d="M73.1557 16.6429C72.3024 16.6429 71.506 16.48 70.7665 16.2086C70.0269 15.9372 69.3443 15.5029 68.7754 15.0143C68.2066 14.5257 67.7515 13.8743 67.4102 13.1686C67.0688 12.4628 66.8982 11.6486 66.8982 10.78C66.8982 9.91144 67.0688 9.09716 67.4102 8.39142C67.7515 7.68572 68.2066 7.03429 68.7754 6.54572C69.3443 6.05714 70.0269 5.62286 70.7665 5.35143C71.506 5.08 72.3024 4.91714 73.1557 4.91714C73.7815 4.91714 74.3503 4.97143 74.9192 5.13429C75.488 5.29715 76 5.46 76.4551 5.67715V9.2057C75.4311 8.87999 74.4072 8.5 73.3832 8.17429C72.5868 8.17429 71.9042 8.39142 71.3922 8.87999C70.8802 9.36856 70.6527 9.96571 70.6527 10.7257C70.6527 11.1057 70.7096 11.4314 70.8803 11.7571C71.0509 12.0829 71.2215 12.3543 71.506 12.5714C71.7904 12.7886 72.0748 13.0057 72.4731 13.1143C72.8712 13.2229 73.2694 13.3314 73.6677 13.3314C74.0659 13.3314 74.4641 13.2771 74.8054 13.1143C75.2036 13.0057 75.5449 12.7886 75.8293 12.6257L77.0808 15.6114C76.6257 15.9372 76.0569 16.1543 75.3743 16.3714C74.6347 16.5343 73.9521 16.6429 73.1557 16.6429Z" fill="#272343" fill-opacity="0.5"/>
<path d="M78.8442 16.3715V5.1886H82.2574V7.03432C82.5987 6.38289 83.0538 5.89431 83.5089 5.62289C83.964 5.35146 84.6466 5.1886 85.4999 5.1886H86.1826V8.17431H85.6706C84.8742 8.17431 84.2484 8.28288 83.7364 8.55431C83.2244 8.82573 82.8831 9.20575 82.5987 9.69432V16.3715H78.8442Z" fill="#272343" fill-opacity="0.5"/>
<path d="M96.991 16.3714L96.5928 14.96C96.0808 15.5029 95.4551 15.8828 94.7725 16.2086C94.0898 16.48 93.3503 16.6429 92.5539 16.6429C91.8143 16.6429 91.0748 16.48 90.3922 16.2086C89.7096 15.9372 89.0838 15.5029 88.5718 15.0143C88.0598 14.5257 87.6617 13.8743 87.3203 13.1686C87.0359 12.4628 86.8652 11.6486 86.8652 10.78C86.8652 9.91144 87.0359 9.09716 87.3203 8.39142C87.6048 7.68572 88.0598 7.03429 88.5718 6.54572C89.0838 6.05714 89.7096 5.62286 90.3922 5.35143C91.0748 5.08 91.8143 4.91714 92.5539 4.91714C93.2934 4.91714 93.976 5.02572 94.6587 5.29714C95.3413 5.56857 95.9102 5.94857 96.4221 6.43714V5.18857H99.6646V13.8743L100.404 16.3714H96.991ZM93.2934 13.3857C94.0329 13.3857 94.6018 13.1686 95.1137 12.7343C95.6257 12.3 95.9102 11.7029 95.9102 10.9429V10.7257C95.9102 10.3457 95.7964 10.02 95.6826 9.69427C95.5119 9.36856 95.3413 9.15143 95.1137 8.9343C94.8862 8.71713 94.6018 8.55428 94.2604 8.44573C93.9191 8.33714 93.5778 8.28286 93.2365 8.28286C92.497 8.28286 91.8713 8.5 91.3593 8.98857C90.8473 9.47714 90.6197 10.0743 90.6197 10.8886C90.6197 11.6486 90.8473 12.3 91.3593 12.7886C91.8713 13.2771 92.497 13.3857 93.2934 13.3857Z" fill="#272343" fill-opacity="0.5"/>
<path d="M103.419 16.3714V8.17426H101.769V5.18856H103.419V1.87713C103.419 1.33427 103.59 0.899985 103.874 0.574271C104.159 0.248555 104.67 0.139984 105.239 0.139984H109.847V3.07141L107.117 2.85427V5.18856H109.847V8.17426H107.117V16.3714H103.419Z" fill="#272343" fill-opacity="0.5"/>
<path d="M116.787 16.3714C115.251 16.3714 114.171 16.1 113.488 15.5029C112.805 14.9057 112.464 13.9829 112.464 12.68V8.1743H110.814V5.18859H112.464V2.4743H116.218V5.18859H119.973L118.608 8.1743H116.218V12.0286C116.218 12.4629 116.332 12.8429 116.503 13.1143C116.673 13.3857 117.015 13.4943 117.47 13.4943L118.608 13.3857V16.3714H116.787Z" fill="#272343" fill-opacity="0.5"/>
<path d="M111.952 5.18857H109.221V8.17428H111.952V5.18857Z" fill="#272343" fill-opacity="0.5"/>
</g>
<defs>
<clipPath id="clip0">
<rect width="120" height="16.8" fill="white"/>
</clipPath>
</defs>
</svg>
