<svg width="120" height="21" viewBox="0 0 120 21" fill="none" xmlns="http://www.w3.org/2000/svg">
<g clip-path="url(#clip0)">
<path fill-rule="evenodd" clip-rule="evenodd" d="M45.0852 19.8156C42.316 19.8156 39.9191 18.854 37.9609 16.9559C36.0038 15.0578 35.01 12.7345 35.01 10.0486C35.01 7.36408 36.0034 5.04041 37.9609 3.14138C39.9181 1.24398 42.316 0.281647 45.0852 0.281647C47.8551 0.281647 50.2514 1.24398 52.2096 3.14138C54.165 5.04008 55.1598 7.36408 55.1598 10.0486C55.1598 12.7332 54.1664 15.0569 52.2096 16.9559C50.2521 18.854 47.8551 19.8156 45.0852 19.8156ZM45.0852 2.50081C42.9416 2.50081 41.0877 3.24491 39.5779 4.70977C38.0659 6.17332 37.3002 7.9708 37.3002 10.0486C37.3002 12.1258 38.0659 13.9233 39.5779 15.3882C41.0888 16.8537 42.9416 17.5965 45.0852 17.5965C47.2278 17.5965 49.0831 16.8537 50.593 15.3882C52.1042 13.9233 52.8706 12.1258 52.8706 10.0486C52.8706 7.9708 52.1042 6.17332 50.593 4.70977C49.0821 3.24425 47.2285 2.50081 45.0852 2.50081Z" fill="#272343" fill-opacity="0.5"/>
<path fill-rule="evenodd" clip-rule="evenodd" d="M95.6437 3.35697C93.6623 1.4369 91.2392 0.463715 88.4379 0.463715C85.636 0.463715 83.2128 1.4369 81.2325 3.35697C79.2521 5.27573 78.2478 7.62702 78.2478 10.3425C78.2478 13.0592 79.2528 15.4085 81.2325 17.328C83.2121 19.248 85.6353 20.2212 88.4379 20.2212C90.9678 20.2212 93.198 19.4239 95.0652 17.8518L95.0727 17.8443C95.3096 17.5984 95.4262 17.3161 95.4262 16.9822C95.4262 16.642 95.3055 16.3613 95.056 16.1201C94.8071 15.8782 94.515 15.7592 94.1672 15.7592C93.8737 15.7592 93.618 15.844 93.379 16.0192C92.0055 17.1876 90.3433 17.7792 88.4369 17.7792C86.325 17.7792 84.498 17.0486 83.0089 15.6051C81.8894 14.5201 81.1796 13.2505 80.8994 11.8287L80.8479 11.5661H97.367C97.7157 11.5661 98.0069 11.4474 98.2561 11.2046C98.5046 10.964 98.6263 10.682 98.6263 10.3431C98.6273 7.62767 97.624 5.27705 95.6437 3.35697ZM80.8506 9.12081L80.9025 8.85754C81.181 7.43705 81.8918 6.16609 83.012 5.08116C84.4991 3.63733 86.326 2.90637 88.4393 2.90637C90.5505 2.90637 92.3775 3.63831 93.8655 5.08116C94.9851 6.16609 95.6935 7.43639 95.9751 8.85754L96.0269 9.12081H80.8506Z" fill="#272343" fill-opacity="0.5"/>
<path fill-rule="evenodd" clip-rule="evenodd" d="M8.35678 2.70157C6.78723 2.70157 5.42802 3.22151 4.31871 4.24531C3.20972 5.27108 2.64619 6.52561 2.64619 7.97437V18.7961C2.64619 19.1349 2.51972 19.4163 2.25858 19.6582C1.9971 19.9001 1.69131 20.0171 1.32517 20.0171C0.958692 20.0171 0.652556 19.9004 0.391079 19.6582C0.129941 19.4163 0.00244141 19.1349 0.00244141 18.7961V7.97437C0.00244141 5.85743 0.828124 4.02281 2.4529 2.52047C4.07768 1.01912 6.06177 0.259567 8.35575 0.259567L8.35712 0.260225H8.38166C10.6637 0.266141 12.643 1.02602 14.263 2.52047C14.6036 2.83566 14.9165 3.1732 15.1954 3.52323L15.389 3.76645L15.583 3.52323C15.8605 3.17419 16.1745 2.83698 16.5154 2.52047C18.1419 1.01978 20.128 0.259567 22.4203 0.259567C24.7143 0.259567 26.6987 1.01912 28.3228 2.52047C29.9479 4.02248 30.7733 5.8571 30.7733 7.97437V18.7961C30.7733 19.1349 30.6458 19.4163 30.3846 19.6582C30.1225 19.9001 29.817 20.0171 29.4505 20.0171C29.0844 20.0171 28.7776 19.9004 28.5171 19.6582C28.256 19.4163 28.1295 19.1349 28.1295 18.7961V7.97437C28.1295 6.52561 27.5656 5.27108 26.457 4.24531C25.3477 3.22151 23.9881 2.70157 22.4189 2.70157C20.8504 2.70157 19.4919 3.22151 18.3829 4.24531C17.2729 5.27108 16.7104 6.52429 16.7104 7.97437V18.7961C16.7104 19.1349 16.5829 19.4163 16.3221 19.6582C16.0596 19.9001 15.7542 20.0171 15.388 20.0171C15.0212 20.0171 14.7151 19.9004 14.4546 19.6582C14.1928 19.4169 14.0646 19.1349 14.0646 18.7961V7.97437C14.0646 6.52561 13.5025 5.27108 12.3942 4.24531C11.2869 3.22348 9.9328 2.70452 8.36973 2.70222" fill="#272343" fill-opacity="0.5"/>
<path fill-rule="evenodd" clip-rule="evenodd" d="M66.7252 20.0556C66.3853 20.0556 66.1194 19.954 65.9118 19.745L65.9008 19.7328L65.8886 19.7233C65.8627 19.6996 65.8044 19.6391 65.7341 19.4929L57.4743 2.05248C57.4228 1.93449 57.3955 1.78988 57.3955 1.63278C57.3955 1.32514 57.5049 1.06911 57.7323 0.848905C57.9577 0.628698 58.2222 0.522867 58.5386 0.522867C58.8594 0.522867 59.1283 0.627383 59.3615 0.844961C59.429 0.910366 59.5013 1.00929 59.5715 1.13189L66.7241 16.2848L73.8764 1.13189C73.9429 1.01455 74.0155 0.921212 74.0953 0.851863L74.1103 0.839045C74.3305 0.625411 74.5913 0.521881 74.909 0.521881C75.2271 0.521881 75.4916 0.627712 75.718 0.847919C75.9423 1.06813 76.0541 1.32416 76.0541 1.63179C76.0541 1.78955 76.0258 1.93351 75.9706 2.05939L67.7121 19.4922C67.6439 19.6404 67.5802 19.7187 67.5416 19.7581C67.3344 19.9579 67.0678 20.0556 66.7252 20.0556Z" fill="#272343" fill-opacity="0.5"/>
<path fill-rule="evenodd" clip-rule="evenodd" d="M104.171 4.93391C103.627 4.31569 103.387 3.59952 103.453 2.78509C103.525 1.97558 103.881 1.30871 104.522 0.783833C105.097 0.307925 105.759 0.0696411 106.506 0.0696411C107.392 0.0696411 108.165 0.420656 108.827 1.12203C108.939 1.24955 109.038 1.38234 109.125 1.51939C109.186 1.61273 109.217 1.71791 109.217 1.83623C109.217 1.9976 109.157 2.13663 109.037 2.25199C108.918 2.36735 108.774 2.42487 108.606 2.42487C108.413 2.42487 108.27 2.36571 108.178 2.24837C108.086 2.13038 107.992 2.01009 107.896 1.8875C107.565 1.51446 107.15 1.30839 106.652 1.26927C106.148 1.22983 105.702 1.3682 105.316 1.68504C104.929 2.00122 104.716 2.39989 104.675 2.88073C104.635 3.36682 104.78 3.79606 105.11 4.16844C105.379 4.41922 105.817 4.6197 106.423 4.77253C107.486 4.99833 108.295 5.41475 108.85 6.02311C109.426 6.68045 109.713 7.42652 109.713 8.26068C109.713 8.37341 109.707 8.48647 109.698 8.59855C109.616 9.57009 109.191 10.3701 108.423 10.9975C107.736 11.5621 106.955 11.8441 106.08 11.8441C104.985 11.8441 104.044 11.4267 103.255 10.5929C103.149 10.4802 103.052 10.3599 102.965 10.2317C102.884 10.1292 102.843 10.0115 102.843 9.87903C102.843 9.71733 102.903 9.57863 103.023 9.46294C103.142 9.34791 103.286 9.29039 103.454 9.29039C103.672 9.29039 103.845 9.3811 103.973 9.56253C104.034 9.65587 104.105 9.74395 104.187 9.82776C104.619 10.3277 105.174 10.6051 105.85 10.659C106.522 10.7079 107.115 10.5229 107.629 10.1038C108.143 9.68414 108.428 9.15071 108.484 8.50323C108.54 7.85083 108.351 7.27698 107.919 6.78135C107.543 6.37446 106.955 6.07011 106.156 5.8693C105.382 5.73619 104.72 5.42461 104.171 4.93391Z" fill="#272343" fill-opacity="0.5"/>
<path fill-rule="evenodd" clip-rule="evenodd" d="M111.313 0.660912C111.313 0.49855 111.374 0.359196 111.493 0.243506C111.614 0.127815 111.758 0.0696411 111.927 0.0696411C112.095 0.0696411 112.239 0.128144 112.359 0.243506C112.48 0.359196 112.54 0.498222 112.54 0.660912V5.39141H118.672V0.660912C118.672 0.49855 118.733 0.359196 118.853 0.243506C118.973 0.127815 119.117 0.0696411 119.286 0.0696411C119.454 0.0696411 119.599 0.128144 119.719 0.243506C119.839 0.359196 119.899 0.498222 119.899 0.660912V11.3041C119.899 11.4668 119.839 11.6062 119.719 11.7219C119.599 11.8382 119.454 11.8954 119.286 11.8954C119.117 11.8954 118.973 11.8379 118.853 11.7219C118.732 11.6062 118.672 11.4672 118.672 11.3041V6.57396H112.54V11.3041C112.54 11.4668 112.479 11.6062 112.359 11.7219C112.239 11.8382 112.095 11.8954 111.927 11.8954C111.758 11.8954 111.613 11.8379 111.493 11.7219C111.373 11.6062 111.313 11.4672 111.313 11.3041V0.660912Z" fill="#272343" fill-opacity="0.5"/>
</g>
<defs>
<clipPath id="clip0">
<rect width="120" height="20.3774" fill="white"/>
</clipPath>
</defs>
</svg>
