<svg width="1669" height="1099" viewBox="0 0 1669 1099" fill="none" xmlns="http://www.w3.org/2000/svg">

<g filter="url(#filter3_d)">
    <rect x="52.5591" y="93.8282" width="1200" height="800" rx="16" transform="rotate(-4 52.5591 93.8282)" fill="#FAFDFF"/>
</g>

<path d="M53.6752 109.789C53.0588 100.974 59.7051 93.3286 68.5201 92.7121L1233.67 11.2366C1242.49 10.6202 1250.14 17.2665 1250.75 26.0815L1256.33 105.887L59.2557 189.594L53.6752 109.789Z" fill="#F4F3FF"/>

<circle cx="99.8" cy="138.642" r="12" transform="rotate(-4 99.8 138.642)" fill="#BAE8E8"/>
<circle cx="139.703" cy="135.852" r="12" transform="rotate(-4 139.703 135.852)" fill="#FF6363"/>
<circle cx="179.605" cy="133.062" r="12" transform="rotate(-4 179.605 133.062)" fill="#FFEF63"/>

<rect x="142.409" y="231.897" width="304" height="32" rx="4" transform="rotate(-4 142.409 231.897)" fill="#ECF8FF"/>
<rect x="146.874" y="295.741" width="1040" height="544" rx="4" transform="rotate(-4 146.874 295.741)" fill="#ECF8FF"/>

<g filter="url(#filter1_d)">
    <rect x="215.182" y="355.121" width="416" height="160" rx="8" transform="rotate(-4 215.182 355.121)" fill="#6C63FF"/>
</g>

<circle cx="300.568" cy="429.345" r="48" transform="rotate(-4 300.568 429.345)" fill="#FAFDFF"/>

<rect x="377.583" y="383.862" width="80" height="16" rx="8" transform="rotate(-4 377.583 383.862)" fill="#FAFDFF"/>
<rect x="379.815" y="415.784" width="160" height="16" rx="8" transform="rotate(-4 379.815 415.784)" fill="#FAFDFF"/>
<rect x="382.047" y="447.706" width="160" height="16" rx="8" transform="rotate(-4 382.047 447.706)" fill="#FAFDFF"/>

<g filter="url(#filter2_d)">
    <rect x="1069.43" y="408" width="575" height="348" rx="16" transform="rotate(8 1069.43 408)" fill="#272343"/>
</g>

<path d="M1316.1 539.983C1319.89 535.13 1327.51 536.201 1329.82 541.911L1397.3 708.928C1399.61 714.638 1394.87 720.704 1388.77 719.847L1210.39 694.777C1204.29 693.92 1201.41 686.783 1205.2 681.93L1316.1 539.983Z" fill="#FAFDFF"/>
<rect x="1096.6" y="441.476" width="80" height="80" rx="8" transform="rotate(8 1096.6 441.476)" fill="#FAFDFF"/>
<path d="M1440.44 618.048C1444.24 613.195 1451.86 614.266 1454.17 619.976L1495.69 722.756C1498 728.466 1493.26 734.532 1487.16 733.675L1377.39 718.247C1371.29 717.39 1368.41 710.253 1372.2 705.4L1440.44 618.048Z" fill="#FAFDFF"/>
<circle cx="1409.3" cy="573.278" r="28" transform="rotate(8 1409.3 573.278)" fill="#FAFDFF"/>
<path d="M169.301 930.49C216.356 930.49 254.5 892.343 254.5 845.286C254.5 798.229 216.356 760.082 169.301 760.082C122.247 760.082 84.1025 798.229 84.1025 845.286C84.1025 892.343 122.247 930.49 169.301 930.49Z" fill="#BAE8E8"/>
<path d="M156.36 912.155L130.477 912.155L130.477 958.532L156.36 958.532L156.36 912.155Z" fill="#BAE8E8"/>
<path d="M208.126 912.155L182.243 912.155L182.243 958.532L208.126 958.532L208.126 912.155Z" fill="#BAE8E8"/>
<path d="M152.046 967.161C163.958 967.161 173.615 963.539 173.615 959.072C173.615 954.604 163.958 950.983 152.046 950.983C140.134 950.983 130.477 954.604 130.477 959.072C130.477 963.539 140.134 967.161 152.046 967.161Z" fill="#BAE8E8"/>
<path d="M203.813 966.082C215.725 966.082 225.382 962.46 225.382 957.993C225.382 953.525 215.725 949.904 203.813 949.904C191.9 949.904 182.243 953.525 182.243 957.993C182.243 962.46 191.9 966.082 203.813 966.082Z" fill="#BAE8E8"/>
<path d="M171.458 852.836C187.54 852.836 200.577 839.798 200.577 823.715C200.577 807.633 187.54 794.595 171.458 794.595C155.377 794.595 142.34 807.633 142.34 823.715C142.34 839.798 155.377 852.836 171.458 852.836Z" fill="white"/>
<path d="M171.458 833.422C176.819 833.422 181.164 829.076 181.164 823.715C181.164 818.354 176.819 814.009 171.458 814.009C166.098 814.009 161.752 818.354 161.752 823.715C161.752 829.076 166.098 833.422 171.458 833.422Z" fill="#3F3D56"/>
<path d="M86.6556 766.049C79.7762 735.237 101.767 704.104 135.773 696.51C169.78 688.916 202.924 707.738 209.804 738.549C216.683 769.36 194.146 780.724 160.139 788.318C126.133 795.911 93.5351 796.86 86.6556 766.049Z" fill="#6C63FF"/>
<path d="M231.424 540.892C239.824 518.915 241.041 498.96 234.142 496.323C227.243 493.686 214.841 509.365 206.441 531.343C198.041 553.32 196.824 573.275 203.723 575.912C210.622 578.549 223.025 562.87 231.424 540.892Z" fill="#BAE8E8"/>
<path d="M224.282 614.107C231.819 567.658 200.277 523.892 153.83 516.355C107.384 508.817 63.6211 540.361 56.0839 586.811C48.5467 633.26 80.0889 677.025 126.535 684.563C172.982 692.101 216.744 660.556 224.282 614.107Z" fill="#BAE8E8"/>
<path d="M127.241 667.328L101.358 667.328L101.358 713.705L127.241 713.705L127.241 667.328Z" fill="#BAE8E8"/>
<path d="M179.008 667.328L153.125 667.328L153.125 713.705L179.008 713.705L179.008 667.328Z" fill="#BAE8E8"/>
<path d="M122.927 722.333C134.84 722.333 144.497 718.712 144.497 714.244C144.497 709.777 134.84 706.155 122.927 706.155C111.015 706.155 101.358 709.777 101.358 714.244C101.358 718.712 111.015 722.333 122.927 722.333Z" fill="#BAE8E8"/>
<path d="M174.694 721.255C186.606 721.255 196.263 717.633 196.263 713.166C196.263 708.698 186.606 705.077 174.694 705.077C162.781 705.077 153.125 708.698 153.125 713.166C153.125 717.633 162.781 721.255 174.694 721.255Z" fill="#BAE8E8"/>
<path d="M142.34 608.009C158.422 608.009 171.458 594.971 171.458 578.888C171.458 562.805 158.422 549.768 142.34 549.768C126.258 549.768 113.221 562.805 113.221 578.888C113.221 594.971 126.258 608.009 142.34 608.009Z" fill="white"/>
<path d="M142.34 588.595C147.701 588.595 152.046 584.249 152.046 578.888C152.046 573.527 147.701 569.181 142.34 569.181C136.979 569.181 132.634 573.527 132.634 578.888C132.634 584.249 136.979 588.595 142.34 588.595Z" fill="#3F3D56"/>
<path d="M57.5369 521.221C50.6575 490.41 72.6483 459.277 106.655 451.683C140.661 444.089 173.806 462.91 180.685 493.722C187.564 524.533 165.027 535.896 131.021 543.49C97.0144 551.084 64.4163 552.032 57.5369 521.221Z" fill="#6C63FF"/>
<path d="M82.7105 579.18C85.8756 572.506 71.2089 558.923 49.9515 548.84C28.6942 538.757 8.89589 535.994 5.73084 542.667C2.56578 549.341 17.2325 562.925 38.4899 573.008C59.7472 583.09 79.5455 585.854 82.7105 579.18Z" fill="#BAE8E8"/>
<path d="M98.3335 631.197C98.3335 639.536 119.804 656.003 143.629 656.003C167.454 656.003 189.792 632.526 189.792 624.186C189.792 615.847 167.454 625.804 143.629 625.804C119.804 625.804 98.3335 622.858 98.3335 631.197Z" fill="white"/>
<path d="M815.13 1097.9L819.952 1098.24L855.368 453.14L850.546 452.803L849.839 465.672L741.761 458.114L742.852 445.271L738.03 444.934L683.326 1088.69L688.148 1089.02L691.695 1047.29L817.426 1056.08L815.13 1097.9ZM840.654 632.981L727.573 625.073L734.258 546.41L844.982 554.153L840.654 632.981ZM840.389 637.807L836.062 716.635L720.479 708.552L727.164 629.889L840.389 637.807ZM835.797 721.461L831.469 800.289L713.386 792.031L720.07 713.368L835.797 721.461ZM831.204 805.115L826.877 883.943L706.292 875.511L712.976 796.847L831.204 805.115ZM826.612 888.769L822.284 967.598L699.198 958.99L705.882 880.327L826.612 888.769ZM849.574 470.499L845.247 549.327L734.667 541.594L741.352 462.931L849.574 470.499ZM692.104 1042.47L698.789 963.806L822.019 972.424L817.691 1051.25L692.104 1042.47Z" fill="#3F3D56"/>
<path d="M750.337 587.581C799.362 587.581 839.104 547.837 839.104 498.81C839.104 449.782 799.362 410.038 750.337 410.038C701.313 410.038 661.571 449.782 661.571 498.81C661.571 547.837 701.313 587.581 750.337 587.581Z" fill="#BAE8E8"/>
<path d="M802.55 560.158L776.015 564.962L784.621 612.508L811.157 607.704L802.55 560.158Z" fill="#BAE8E8"/>
<path d="M749.479 569.766L722.944 574.57L731.551 622.116L758.086 617.312L749.479 569.766Z" fill="#BAE8E8"/>
<path d="M745.637 632.122C755.108 624.101 760.348 614.719 757.34 611.167C754.332 607.615 744.216 611.238 734.744 619.26C725.273 627.281 720.034 636.663 723.042 640.215C726.05 643.767 736.166 640.144 745.637 632.122Z" fill="#BAE8E8"/>
<path d="M797.602 622.714C807.074 614.693 812.313 605.311 809.305 601.759C806.297 598.207 796.181 601.83 786.71 609.852C777.239 617.873 771.999 627.255 775.007 630.807C778.015 634.359 788.131 630.736 797.602 622.714Z" fill="#BAE8E8"/>
<path d="M744.123 507.435C760.879 507.435 774.461 493.852 774.461 477.095C774.461 460.339 760.879 446.756 744.123 446.756C727.368 446.756 713.786 460.339 713.786 477.095C713.786 493.852 727.368 507.435 744.123 507.435Z" fill="white"/>
<path d="M731.655 476.333C737.24 476.333 741.767 471.806 741.767 466.22C741.767 460.635 737.24 456.107 731.655 456.107C726.07 456.107 721.542 460.635 721.542 466.22C721.542 471.806 726.07 476.333 731.655 476.333Z" fill="#3F3D56"/>
<path d="M820.362 402.235C821.697 369.371 793.374 341.534 757.101 340.061C720.828 338.587 690.341 364.035 689.006 396.899C687.671 429.764 712.885 437.231 749.158 438.705C785.431 440.178 819.027 435.1 820.362 402.235Z" fill="#6C63FF"/>
<path d="M711.635 492.554C713.355 485.053 695.38 474.532 671.487 469.055C647.595 463.578 626.832 465.219 625.113 472.72C623.394 480.221 641.369 490.742 665.261 496.219C689.154 501.696 709.916 500.055 711.635 492.554Z" fill="#BAE8E8"/>
<path d="M885.88 521.532C887.6 514.031 869.625 503.51 845.732 498.033C821.84 492.557 801.077 494.197 799.358 501.699C797.639 509.2 815.614 519.72 839.506 525.197C863.399 530.674 884.161 529.033 885.88 521.532Z" fill="#BAE8E8"/>
<path d="M774.717 533.793C775.195 536.408 775.153 539.09 774.594 541.689C774.035 544.287 772.969 546.749 771.458 548.935C769.947 551.121 768.02 552.988 765.787 554.429C763.554 555.87 761.059 556.856 758.444 557.332C755.83 557.808 753.147 557.764 750.55 557.203C747.952 556.641 745.491 555.574 743.306 554.06C741.121 552.547 739.256 550.618 737.818 548.384C736.379 546.15 735.394 543.653 734.92 541.038L734.913 540.999C732.924 530.007 741.422 526.118 752.413 524.128C763.405 522.138 772.727 522.801 774.717 533.793Z" fill="white"/>
<path d="M1225.54 847.593C1233.17 844.675 1231.82 822.601 1222.53 798.288C1213.24 773.975 1199.52 756.63 1191.89 759.547C1184.25 762.465 1185.6 784.539 1194.89 808.852C1204.18 833.165 1217.9 850.51 1225.54 847.593Z" fill="#BAE8E8"/>
<path d="M1291.23 987.485C1342.61 979.146 1377.5 930.731 1369.17 879.346C1360.83 827.962 1312.42 793.066 1261.03 801.405C1209.65 809.743 1174.76 858.158 1183.1 909.543C1191.44 960.928 1239.85 995.823 1291.23 987.485Z" fill="#BAE8E8"/>
<path d="M1319.08 968.419H1290.45L1296.05 1029.86L1319.13 1023.59L1319.08 968.419Z" fill="#BAE8E8"/>
<path d="M1256.66 968.579H1228.02L1233.63 1030.02L1255.67 1023.59L1256.66 968.579Z" fill="#BAE8E8"/>
<path d="M1232.81 1032.91C1245.96 1031.95 1256.32 1027.17 1255.96 1022.24C1255.6 1017.31 1244.65 1014.1 1231.51 1015.06C1218.37 1016.02 1208 1020.79 1208.36 1025.72C1208.72 1030.65 1219.67 1033.87 1232.81 1032.91Z" fill="#BAE8E8"/>
<path d="M1273.75 902.797C1291.54 902.797 1305.96 888.374 1305.96 870.582C1305.96 852.791 1291.54 838.368 1273.75 838.368C1255.96 838.368 1241.53 852.791 1241.53 870.582C1241.53 888.374 1255.96 902.797 1273.75 902.797Z" fill="white"/>
<path d="M1273.75 881.32C1279.68 881.32 1284.48 876.513 1284.48 870.582C1284.48 864.652 1279.68 859.844 1273.75 859.844C1267.82 859.844 1263.01 864.652 1263.01 870.582C1263.01 876.513 1267.82 881.32 1273.75 881.32Z" fill="#3F3D56"/>
<path d="M1387.62 837.613C1403.09 816.677 1410.3 795.769 1403.72 790.914C1397.15 786.06 1379.29 799.097 1363.82 820.033C1348.36 840.97 1341.15 861.878 1347.73 866.732C1354.3 871.587 1372.16 858.55 1387.62 837.613Z" fill="#BAE8E8"/>
<path d="M1230.15 943.046C1230.15 935.443 1249.72 920.429 1271.44 920.429C1293.17 920.429 1313.53 941.835 1313.53 949.438C1313.53 957.041 1293.17 947.963 1271.44 947.963C1249.72 947.963 1230.15 950.65 1230.15 943.046Z" fill="white"/>
<path d="M1367.56 806.788C1375.17 772.704 1350.84 738.262 1313.22 729.862C1275.6 721.461 1238.94 742.282 1231.33 776.367C1223.72 810.452 1248.65 823.023 1286.27 831.423C1323.89 839.824 1359.95 840.873 1367.56 806.788Z" fill="#6C63FF"/>
<path d="M1295.61 1032.75C1308.75 1031.79 1319.11 1027.02 1318.75 1022.09C1318.39 1017.16 1307.44 1013.94 1294.3 1014.91C1281.16 1015.87 1270.8 1020.64 1271.16 1025.57C1271.52 1030.5 1282.46 1033.72 1295.61 1032.75Z" fill="#BAE8E8"/>

<defs>
    <filter id="filter3_d" x="42.5591" y="0.120483" width="1292.88" height="921.759" filterUnits="userSpaceOnUse" color-interpolation-filters="sRGB">
        <feFlood flood-opacity="0" result="BackgroundImageFix"/>
        <feColorMatrix in="SourceAlpha" type="matrix" values="0 0 0 0 0 0 0 0 0 0 0 0 0 0 0 0 0 0 127 0"/>
        <feOffset dx="10" dy="10"/>
        <feGaussianBlur stdDeviation="10"/>
        <feColorMatrix type="matrix" values="0 0 0 0 0 0 0 0 0 0 0 0 0 0 0 0 0 0 0.25 0"/>
        <feBlend mode="normal" in2="BackgroundImageFix" result="effect1_dropShadow"/>
        <feBlend mode="normal" in="SourceGraphic" in2="effect1_dropShadow" result="shape"/>
    </filter>
    
    <filter id="filter1_d" x="212.182" y="323.102" width="436.148" height="198.629" filterUnits="userSpaceOnUse" color-interpolation-filters="sRGB">
        <feFlood flood-opacity="0" result="BackgroundImageFix"/>
        <feColorMatrix in="SourceAlpha" type="matrix" values="0 0 0 0 0 0 0 0 0 0 0 0 0 0 0 0 0 0 127 0"/>
        <feOffset dx="2" dy="2"/>
        <feGaussianBlur stdDeviation="2.5"/>
        <feColorMatrix type="matrix" values="0 0 0 0 0 0 0 0 0 0 0 0 0 0 0 0 0 0 0.25 0"/>
        <feBlend mode="normal" in2="BackgroundImageFix" result="effect1_dropShadow"/>
        <feBlend mode="normal" in="SourceGraphic" in2="effect1_dropShadow" result="shape"/>
    </filter>
    
    <filter id="filter2_d" x="1011" y="398" width="657.836" height="464.638" filterUnits="userSpaceOnUse" color-interpolation-filters="sRGB">
        <feFlood flood-opacity="0" result="BackgroundImageFix"/>
        <feColorMatrix in="SourceAlpha" type="matrix" values="0 0 0 0 0 0 0 0 0 0 0 0 0 0 0 0 0 0 127 0"/>
        <feOffset dx="10" dy="10"/>
        <feGaussianBlur stdDeviation="10"/>
        <feColorMatrix type="matrix" values="0 0 0 0 0 0 0 0 0 0 0 0 0 0 0 0 0 0 0.25 0"/>
        <feBlend mode="normal" in2="BackgroundImageFix" result="effect1_dropShadow"/>
        <feBlend mode="normal" in="SourceGraphic" in2="effect1_dropShadow" result="shape"/>
    </filter>
</defs>
</svg>
