<svg viewBox="0 0 30 30" fill="none" xmlns="http://www.w3.org/2000/svg">
<path d="M25.7531 23.3156L28.3406 20.7281C28.6166 20.4151 28.763 20.0087 28.7499 19.5916C28.7368 19.1745 28.5652 18.7781 28.2701 18.483C27.9751 18.1879 27.5786 18.0164 27.1615 18.0033C26.7444 17.9902 26.338 18.1365 26.025 18.4125L23.4375 21L20.85 18.4125C20.537 18.1365 20.1306 17.9902 19.7135 18.0033C19.2964 18.0164 18.8999 18.1879 18.6049 18.483C18.3098 18.7781 18.1382 19.1745 18.1251 19.5916C18.112 20.0087 18.2584 20.4151 18.5344 20.7281L21.1219 23.3156L18.5344 25.9031C18.3663 26.0514 18.2303 26.2325 18.1349 26.4353C18.0395 26.638 17.9866 26.8582 17.9796 27.0822C17.9726 27.3063 18.0115 27.5293 18.094 27.7377C18.1765 27.9461 18.3008 28.1353 18.4593 28.2938C18.6178 28.4523 18.8071 28.5766 19.0154 28.6591C19.2238 28.7416 19.4469 28.7806 19.6709 28.7735C19.8949 28.7665 20.1151 28.7137 20.3179 28.6182C20.5207 28.5228 20.7018 28.3869 20.85 28.2188L23.4375 25.6406L26.025 28.2281C26.1732 28.3962 26.3543 28.5322 26.5571 28.6276C26.7599 28.723 26.9801 28.7759 27.2041 28.7829C27.4281 28.79 27.6512 28.751 27.8596 28.6685C28.0679 28.586 28.2572 28.4617 28.4157 28.3032C28.5742 28.1447 28.6985 27.9555 28.781 27.7471C28.8635 27.5387 28.9024 27.3156 28.8954 27.0916C28.8884 26.8676 28.8355 26.6474 28.7401 26.4446C28.6447 26.2418 28.5087 26.0607 28.3406 25.9125L25.7531 23.3156ZM6.5625 16.5188C7.62866 16.5188 8.67089 16.2026 9.55737 15.6103C10.4439 15.018 11.1348 14.1761 11.5428 13.191C11.9508 12.206 12.0575 11.1222 11.8495 10.0765C11.6415 9.03081 11.1281 8.07029 10.3742 7.3164C9.62035 6.56251 8.65984 6.0491 7.61416 5.8411C6.56848 5.6331 5.4846 5.73985 4.4996 6.14786C3.51459 6.55586 2.67269 7.24679 2.08036 8.13327C1.48803 9.01976 1.17188 10.062 1.17188 11.1281C1.17435 12.5571 1.74309 13.9268 2.75349 14.9372C3.76389 15.9476 5.13358 16.5163 6.5625 16.5188ZM6.5625 9.01877C6.97969 9.01877 7.38752 9.14248 7.73441 9.37426C8.08129 9.60604 8.35165 9.93548 8.51131 10.3209C8.67096 10.7064 8.71273 11.1305 8.63134 11.5397C8.54995 11.9488 8.34905 12.3247 8.05405 12.6197C7.75905 12.9147 7.3832 13.1156 6.97402 13.197C6.56484 13.2784 6.14071 13.2366 5.75528 13.077C5.36984 12.9173 5.0404 12.6469 4.80862 12.3001C4.57684 11.9532 4.45312 11.5453 4.45312 11.1281C4.45312 10.5687 4.67536 10.0322 5.07095 9.63659C5.46653 9.24101 6.00306 9.01877 6.5625 9.01877ZM20.9906 8.15627C21.2579 8.60507 21.6925 8.9293 22.1989 9.05765C22.7052 9.18599 23.2418 9.10793 23.6906 8.84064C24.1394 8.57336 24.4637 8.13873 24.592 7.63238C24.7203 7.12604 24.6423 6.58944 24.375 6.14065C23.2048 4.29793 21.6427 2.73586 19.8 1.56565C19.497 1.38386 19.1502 1.28784 18.7969 1.28784C18.4435 1.28784 18.0968 1.38386 17.7937 1.56565C15.9508 2.73562 14.3887 4.29773 13.2188 6.14065C13.0502 6.35757 12.9293 6.60767 12.8642 6.87455C12.799 7.14143 12.7909 7.41907 12.8406 7.68927C12.8902 7.95948 12.9963 8.21616 13.152 8.44248C13.3077 8.66881 13.5095 8.85968 13.7442 9.00258C13.9788 9.14549 14.241 9.2372 14.5135 9.27172C14.7861 9.30623 15.0628 9.28277 15.3257 9.20287C15.5885 9.12296 15.8315 8.98842 16.0387 8.80806C16.246 8.62769 16.4127 8.40558 16.5281 8.15627C16.7388 7.8314 16.9673 7.51842 17.2125 7.21877C17.1657 10.7609 15.7276 14.1425 13.2088 16.6333C10.6899 19.1241 7.29241 20.5242 3.75 20.5313C3.31488 20.5313 2.89758 20.7041 2.5899 21.0118C2.28223 21.3195 2.10937 21.7368 2.10937 22.1719C2.10937 22.607 2.28223 23.0243 2.5899 23.332C2.89758 23.6397 3.31488 23.8125 3.75 23.8125C8.12909 23.8063 12.3321 22.0876 15.4608 19.0236C18.5895 15.9597 20.3958 11.7936 20.4937 7.41565C20.6732 7.65299 20.839 7.90026 20.9906 8.15627Z" fill="#6C63FF"/>
</svg>
