<svg viewBox="0 0 40 40" fill="none" xmlns="http://www.w3.org/2000/svg">
<path d="M5.375 20L13.375 12C13.875 11.5 13.875 10.75 13.375 10.25C12.875 9.74999 12.125 9.74999 11.625 10.25L2.75 19.125C2.5 19.375 2.375 19.625 2.375 20C2.375 20.375 2.5 20.625 2.75 20.875L11.625 29.75C12.125 30.25 12.875 30.25 13.375 29.75C13.875 29.25 13.875 28.5 13.375 28L5.375 20ZM23.5 6.74999C22.875 6.62499 22.125 6.99999 22 7.62499L15.5 31.75C15.375 32.375 15.75 33.125 16.375 33.25C17 33.375 17.75 33 17.875 32.375L24.375 8.24999C24.625 7.62499 24.25 6.87499 23.5 6.74999ZM37.25 19.125L28.375 10.25C27.875 9.74999 27.125 9.74999 26.625 10.25C26.125 10.75 26.125 11.5 26.625 12L34.625 20L26.625 28C26.125 28.5 26.125 29.25 26.625 29.75C27.125 30.25 27.875 30.25 28.375 29.75L37.25 20.875C37.5 20.625 37.625 20.25 37.625 20C37.625 19.625 37.5 19.375 37.25 19.125Z" fill="#6C63FF"/>
</svg>
