<svg viewBox="0 0 33 33" fill="none" xmlns="http://www.w3.org/2000/svg">
<path d="M28.5943 3.96C29.8839 3.96 30.9262 5.02137 30.9262 6.34099V21.384L31.706 20.592H4.40587C3.11629 20.592 2.07398 19.5306 2.07398 18.211V3.168L1.29419 3.96H28.5943ZM0.514404 2.376V3.168V18.211C0.514404 20.4045 2.25406 22.176 4.40587 22.176H31.706H32.4857V21.384V6.34099C32.4857 4.14747 30.7461 2.376 28.5943 2.376H1.29419H0.514404ZM6.30289 31.0918C6.01139 31.4137 6.03208 31.9148 6.34909 32.2108C6.66611 32.5069 7.15941 32.4859 7.45091 32.1639L14.5151 24.361C14.8066 24.039 14.7859 23.538 14.4689 23.242C14.1519 22.9459 13.6586 22.9669 13.3671 23.2889L6.30289 31.0918ZM25.7295 32.1639C26.021 32.4859 26.5143 32.5069 26.8313 32.2108C27.1483 31.9148 27.169 31.4137 26.8775 31.0918L19.8133 23.2889C19.5218 22.9669 19.0285 22.9459 18.7115 23.242C18.3945 23.538 18.3738 24.039 18.6653 24.361L25.7295 32.1639ZM14.2368 3.33919C14.2368 3.68205 14.5859 3.96 15.0166 3.96C15.4472 3.96 15.7964 3.68205 15.7964 3.33919V0.620814C15.7964 0.277948 15.4472 0 15.0166 0C14.5859 0 14.2368 0.277948 14.2368 0.620814V3.33919ZM16.5902 9.89545C17.0209 9.89545 17.37 9.54086 17.37 9.10345C17.37 8.66604 17.0209 8.31145 16.5902 8.31145H5.11085C4.68018 8.31145 4.33106 8.66604 4.33106 9.10345C4.33106 9.54086 4.68018 9.89545 5.11085 9.89545H16.5902ZM16.5902 14.9934C17.0209 14.9934 17.37 14.6388 17.37 14.2014C17.37 13.764 17.0209 13.4094 16.5902 13.4094H5.11085C4.68018 13.4094 4.33106 13.764 4.33106 14.2014C4.33106 14.6388 4.68018 14.9934 5.11085 14.9934H16.5902ZM21.9239 17.8017C23.49 16.5715 24.4342 14.7174 24.4342 12.19V6.98806C24.4342 6.55065 24.0851 6.19606 23.6544 6.19606C23.2238 6.19606 22.8746 6.55065 22.8746 6.98806V12.19C22.8746 14.2142 22.1632 15.6113 20.9698 16.5487C20.5505 16.878 20.0987 17.1264 19.6479 17.3034C19.3835 17.4073 19.1861 17.4627 19.0913 17.4813C18.6684 17.5643 18.3919 17.9798 18.4737 18.4092C18.5554 18.8387 18.9645 19.1195 19.3873 19.0365C20.0489 18.9066 20.9855 18.5387 21.9239 17.8017ZM24.2552 7.49301C24.5298 7.15603 24.4834 6.65678 24.1516 6.3779C23.8198 6.09903 23.3282 6.14614 23.0537 6.48312L19.5216 10.8181C19.247 11.155 19.2934 11.6543 19.6252 11.9332C19.9569 12.212 20.4485 12.1649 20.7231 11.8279L24.2552 7.49301ZM24.2552 6.48312C23.9806 6.14614 23.4891 6.09903 23.1573 6.3779C22.8255 6.65678 22.7791 7.15603 23.0537 7.49301L26.5858 11.8279C26.8604 12.1649 27.3519 12.212 27.6837 11.9332C28.0155 11.6543 28.0619 11.155 27.7873 10.8181L24.2552 6.48312Z" fill="#6C63FF"/>
</svg>
