<svg viewBox="0 0 40 40" fill="none" xmlns="http://www.w3.org/2000/svg">
<path d="M33.6172 31.0476C36.0667 29.2176 37.4597 26.5897 37.4597 23.7583C37.4597 18.8781 33.2531 14.8353 27.823 14.2187C27.1122 8.63063 21.6891 4.42313 15.1824 4.42313C8.1694 4.42313 2.46387 9.36569 2.46387 15.4409C2.46387 18.7166 4.09672 21.7556 6.96406 23.8539C6.80752 24.5405 6.25714 25.9851 5.63903 27.2952C5.41834 27.7628 5.5373 28.3202 5.92948 28.6571C6.14361 28.8411 6.41047 28.9346 6.67849 28.9346C6.90122 28.9346 7.12471 28.8699 7.31942 28.739C9.00295 27.6064 11.1132 26.3239 11.8056 26.0666C12.9009 26.3268 14.0357 26.4587 15.1824 26.4587C15.3674 26.4587 15.553 26.4545 15.7381 26.4476C17.0816 30.4481 21.3429 33.3797 26.3783 33.3797C27.3581 33.3797 28.3278 33.269 29.2648 33.0506C29.8874 33.3008 31.6423 34.3711 33.038 35.3097C33.2327 35.4407 33.4564 35.5054 33.6791 35.5054C33.9471 35.5054 34.214 35.4119 34.4281 35.2278C34.8203 34.8908 34.939 34.3333 34.7184 33.8658C34.2235 32.8173 33.7739 31.6545 33.6172 31.0476ZM15.1824 24.1606C14.148 24.1606 13.1268 24.034 12.1473 23.7841C11.8073 23.6974 11.3373 23.5779 9.06335 24.9063C9.40692 23.7667 9.47459 22.7833 8.68089 22.2514C6.19038 20.5826 4.76195 18.1002 4.76195 15.4409C4.76195 10.6329 9.43646 6.72125 15.1824 6.72125C20.3953 6.72125 24.7489 9.89626 25.4922 14.1678C19.7947 14.5611 15.297 18.7121 15.297 23.7583C15.297 23.8927 15.301 24.0262 15.3074 24.1593C15.2657 24.1596 15.224 24.1606 15.1824 24.1606ZM31.8695 29.4699C31.1996 29.9186 31.1602 30.6694 31.3713 31.5482C30.1521 30.8636 29.5991 30.7152 29.2687 30.7152C29.1331 30.7152 29.0349 30.7401 28.9436 30.7635C28.1161 30.9746 27.2528 31.0816 26.3783 31.0816C21.5351 31.0816 17.595 27.7964 17.595 23.7583C17.595 19.7202 21.5351 16.435 26.3783 16.435C31.2215 16.435 35.1616 19.7202 35.1616 23.7583C35.1616 25.9861 33.9615 28.068 31.8695 29.4699Z" fill="#6C63FF"/>
<path d="M9.62451 12.5999C9.62451 12.9835 9.79279 13.3515 10.0923 13.6228C10.3919 13.8941 10.7981 14.0465 11.2217 14.0465C11.6453 14.0465 12.0516 13.8941 12.3511 13.6228C12.6506 13.3515 12.8189 12.9835 12.8189 12.5999C12.8189 12.2162 12.6506 11.8482 12.3511 11.5769C12.0516 11.3056 11.6453 11.1532 11.2217 11.1532C10.7981 11.1532 10.3919 11.3056 10.0923 11.5769C9.79279 11.8482 9.62451 12.2162 9.62451 12.5999Z" fill="#6C63FF"/>
<path d="M17.925 12.5999C17.925 12.9835 18.0933 13.3515 18.3929 13.6228C18.6924 13.8941 19.0986 14.0465 19.5223 14.0465C19.9459 14.0465 20.3521 13.8941 20.6516 13.6228C20.9512 13.3515 21.1195 12.9835 21.1195 12.5999C21.1195 12.2162 20.9512 11.8482 20.6516 11.5769C20.3521 11.3056 19.9459 11.1532 19.5223 11.1532C19.0986 11.1532 18.6924 11.3056 18.3929 11.5769C18.0933 11.8482 17.925 12.2162 17.925 12.5999Z" fill="#6C63FF"/>
<path d="M22.1155 20.7175C22.1155 21.0254 22.2505 21.3207 22.4909 21.5384C22.7313 21.7561 23.0573 21.8785 23.3972 21.8785C23.7372 21.8785 24.0632 21.7561 24.3036 21.5384C24.544 21.3207 24.679 21.0254 24.679 20.7175C24.679 20.4096 24.544 20.1143 24.3036 19.8966C24.0632 19.6788 23.7372 19.5565 23.3972 19.5565C23.0573 19.5565 22.7313 19.6788 22.4909 19.8966C22.2505 20.1143 22.1155 20.4096 22.1155 20.7175Z" fill="#6C63FF"/>
<path d="M28.4956 20.7175C28.4956 21.0254 28.6306 21.3207 28.871 21.5384C29.1114 21.7561 29.4374 21.8785 29.7774 21.8785C30.1173 21.8785 30.4433 21.7561 30.6837 21.5384C30.9241 21.3207 31.0591 21.0254 31.0591 20.7175C31.0591 20.4096 30.9241 20.1143 30.6837 19.8966C30.4433 19.6788 30.1173 19.5565 29.7774 19.5565C29.4374 19.5565 29.1114 19.6788 28.871 19.8966C28.6306 20.1143 28.4956 20.4096 28.4956 20.7175Z" fill="#6C63FF"/>
</svg>
