<svg width="59" height="62" viewBox="0 0 59 62" fill="none" xmlns="http://www.w3.org/2000/svg">
<path d="M10.3089 26.1554C11.9566 25.5203 11.6523 20.7508 9.62942 15.5024C7.60651 10.254 4.63095 6.51415 2.98331 7.14921C1.33567 7.78426 1.63989 12.5537 3.6628 17.8022C5.68571 23.0506 8.66128 26.7904 10.3089 26.1554Z" fill="#BAE8E8"/>
<path d="M25.5162 52.3501C36.7657 52.3501 45.8853 43.2305 45.8853 31.981C45.8853 20.7315 36.7657 11.6119 25.5162 11.6119C14.2667 11.6119 5.14714 20.7315 5.14714 31.981C5.14714 43.2305 14.2667 52.3501 25.5162 52.3501Z" fill="#BAE8E8"/>
<path d="M28.6853 59.0442L34.8734 59.0269L34.8423 47.9399L28.6543 47.9572L28.6853 59.0442Z" fill="#BAE8E8"/>
<path d="M16.31 59.0798L22.4981 59.0625L22.467 47.9756L16.279 47.9929L16.31 59.0798Z" fill="#BAE8E8"/>
<path d="M29.7232 61.1048C32.5712 61.0968 34.8775 60.2246 34.8745 59.1566C34.8715 58.0886 32.5604 57.2293 29.7124 57.2373C26.8644 57.2452 24.5581 58.1175 24.5611 59.1855C24.5641 60.2535 26.8753 61.1128 29.7232 61.1048Z" fill="#BAE8E8"/>
<path d="M17.3464 60.8818C20.1944 60.8738 22.5007 60.0016 22.4977 58.9336C22.4947 57.8656 20.1835 57.0063 17.3356 57.0142C14.4876 57.0222 12.1813 57.8945 12.1843 58.9625C12.1873 60.0304 14.4984 60.8897 17.3464 60.8818Z" fill="#BAE8E8"/>
<path d="M24.9861 33.7873C28.8309 33.7873 31.9477 30.6705 31.9477 26.8257C31.9477 22.9809 28.8309 19.8641 24.9861 19.8641C21.1413 19.8641 18.0245 22.9809 18.0245 26.8257C18.0245 30.6705 21.1413 33.7873 24.9861 33.7873Z" fill="white"/>
<path d="M24.9861 29.1464C26.2677 29.1464 27.3066 28.1075 27.3066 26.8259C27.3066 25.5443 26.2677 24.5054 24.9861 24.5054C23.7045 24.5054 22.6656 25.5443 22.6656 26.8259C22.6656 28.1075 23.7045 29.1464 24.9861 29.1464Z" fill="#3F3D56"/>
<path d="M40.785 12.3389C41.9743 6.98411 38.1091 1.58737 32.1517 0.28497C26.1943 -1.01743 20.4008 2.26771 19.2115 7.62254C18.0222 12.9774 21.9735 14.9401 27.9308 16.2425C33.8882 17.5449 39.5957 17.6938 40.785 12.3389Z" fill="#6C63FF"/>
<path d="M49.8103 25.3506C54.8856 22.926 58.383 19.6688 57.6218 18.0755C56.8607 16.4822 52.1292 17.1561 47.0539 19.5807C41.9785 22.0053 38.4812 25.2625 39.2423 26.8558C40.0035 28.4491 44.7349 27.7752 49.8103 25.3506Z" fill="#BAE8E8"/>
<path d="M35.542 39.3013C35.5476 41.2949 30.4255 45.2459 24.7296 45.2618C19.0336 45.2778 13.6773 39.6802 13.6718 37.6866C13.6662 35.693 19.0134 38.0584 24.7094 38.0424C30.4053 38.0264 35.5365 37.3077 35.542 39.3013Z" fill="white"/>
</svg>
